solid Housing
   facet normal -6.427876e-01 -7.660444e-01 -0.000000e+00
      outer loop
         vertex 3.575261e+00 0.000000e+00 1.242474e+01
         vertex 0.000000e+00 3.000000e+00 0.000000e+00
         vertex 3.575261e+00 0.000000e+00 3.575265e+00
      endloop
   endfacet
   facet normal 0.000000e+00 -7.660449e-01 -6.427871e-01
      outer loop
         vertex 1.600000e+01 3.000000e+00 0.000000e+00
         vertex 1.242474e+01 0.000000e+00 3.575265e+00
         vertex 3.575261e+00 0.000000e+00 3.575265e+00
      endloop
   endfacet
   facet normal 0.000000e+00 -7.660449e-01 -6.427871e-01
      outer loop
         vertex 0.000000e+00 3.000000e+00 0.000000e+00
         vertex 1.600000e+01 3.000000e+00 0.000000e+00
         vertex 3.575261e+00 0.000000e+00 3.575265e+00
      endloop
   endfacet
   facet normal 0.000000e+00 -1.000000e+00 0.000000e+00
      outer loop
         vertex 1.242474e+01 0.000000e+00 3.575265e+00
         vertex 1.242474e+01 0.000000e+00 1.242474e+01
         vertex 3.575261e+00 0.000000e+00 3.575265e+00
      endloop
   endfacet
   facet normal -0.000000e+00 -1.000000e+00 0.000000e+00
      outer loop
         vertex 1.242474e+01 0.000000e+00 1.242474e+01
         vertex 3.575261e+00 0.000000e+00 1.242474e+01
         vertex 3.575261e+00 0.000000e+00 3.575265e+00
      endloop
   endfacet
   facet normal 6.427876e-01 -7.660444e-01 0.000000e+00
      outer loop
         vertex 1.600000e+01 3.000000e+00 1.600000e+01
         vertex 1.242474e+01 0.000000e+00 1.242474e+01
         vertex 1.242474e+01 0.000000e+00 3.575265e+00
      endloop
   endfacet
   facet normal 6.427876e-01 -7.660444e-01 0.000000e+00
      outer loop
         vertex 1.600000e+01 3.000000e+00 0.000000e+00
         vertex 1.600000e+01 3.000000e+00 1.600000e+01
         vertex 1.242474e+01 0.000000e+00 3.575265e+00
      endloop
   endfacet
   facet normal -6.427871e-01 -7.660449e-01 -0.000000e+00
      outer loop
         vertex 1.005753e+02 0.000000e+00 1.242474e+01
         vertex 9.700000e+01 3.000000e+00 0.000000e+00
         vertex 1.005753e+02 0.000000e+00 3.575265e+00
      endloop
   endfacet
   facet normal 0.000000e+00 -7.660449e-01 -6.427871e-01
      outer loop
         vertex 1.130000e+02 3.000000e+00 0.000000e+00
         vertex 1.094247e+02 0.000000e+00 3.575265e+00
         vertex 1.005753e+02 0.000000e+00 3.575265e+00
      endloop
   endfacet
   facet normal 0.000000e+00 -7.660449e-01 -6.427871e-01
      outer loop
         vertex 9.700000e+01 3.000000e+00 0.000000e+00
         vertex 1.130000e+02 3.000000e+00 0.000000e+00
         vertex 1.005753e+02 0.000000e+00 3.575265e+00
      endloop
   endfacet
   facet normal -0.000000e+00 -1.000000e+00 0.000000e+00
      outer loop
         vertex 1.094247e+02 0.000000e+00 1.242474e+01
         vertex 1.005753e+02 0.000000e+00 1.242474e+01
         vertex 1.005753e+02 0.000000e+00 3.575265e+00
      endloop
   endfacet
   facet normal 0.000000e+00 -1.000000e+00 0.000000e+00
      outer loop
         vertex 1.094247e+02 0.000000e+00 3.575265e+00
         vertex 1.094247e+02 0.000000e+00 1.242474e+01
         vertex 1.005753e+02 0.000000e+00 3.575265e+00
      endloop
   endfacet
   facet normal 6.427879e-01 -7.660442e-01 0.000000e+00
      outer loop
         vertex 1.130000e+02 3.000000e+00 1.600000e+01
         vertex 1.094247e+02 0.000000e+00 1.242474e+01
         vertex 1.094247e+02 0.000000e+00 3.575265e+00
      endloop
   endfacet
   facet normal 6.427879e-01 -7.660442e-01 0.000000e+00
      outer loop
         vertex 1.130000e+02 3.000000e+00 0.000000e+00
         vertex 1.130000e+02 3.000000e+00 1.600000e+01
         vertex 1.094247e+02 0.000000e+00 3.575265e+00
      endloop
   endfacet
   facet normal -6.427876e-01 -7.660444e-01 -0.000000e+00
      outer loop
         vertex 0.000000e+00 3.000000e+00 1.600000e+01
         vertex 0.000000e+00 3.000000e+00 0.000000e+00
         vertex 3.575261e+00 0.000000e+00 1.242474e+01
      endloop
   endfacet
   facet normal 0.000000e+00 -7.660449e-01 6.427871e-01
      outer loop
         vertex 1.242474e+01 0.000000e+00 1.242474e+01
         vertex 0.000000e+00 3.000000e+00 1.600000e+01
         vertex 3.575261e+00 0.000000e+00 1.242474e+01
      endloop
   endfacet
   facet normal 0.000000e+00 -7.660449e-01 6.427871e-01
      outer loop
         vertex 1.600000e+01 3.000000e+00 1.600000e+01
         vertex 0.000000e+00 3.000000e+00 1.600000e+01
         vertex 1.242474e+01 0.000000e+00 1.242474e+01
      endloop
   endfacet
   facet normal 0.000000e+00 -7.660449e-01 6.427871e-01
      outer loop
         vertex 1.094247e+02 0.000000e+00 1.242474e+01
         vertex 9.700000e+01 3.000000e+00 1.600000e+01
         vertex 1.005753e+02 0.000000e+00 1.242474e+01
      endloop
   endfacet
   facet normal -6.427871e-01 -7.660449e-01 -0.000000e+00
      outer loop
         vertex 9.700000e+01 3.000000e+00 1.600000e+01
         vertex 9.700000e+01 3.000000e+00 0.000000e+00
         vertex 1.005753e+02 0.000000e+00 1.242474e+01
      endloop
   endfacet
   facet normal 0.000000e+00 -7.660449e-01 6.427871e-01
      outer loop
         vertex 1.130000e+02 3.000000e+00 1.600000e+01
         vertex 9.700000e+01 3.000000e+00 1.600000e+01
         vertex 1.094247e+02 0.000000e+00 1.242474e+01
      endloop
   endfacet
   facet normal -6.427876e-01 -7.660444e-01 -0.000000e+00
      outer loop
         vertex 3.575261e+00 0.000000e+00 1.824247e+02
         vertex 0.000000e+00 3.000000e+00 1.700000e+02
         vertex 3.575261e+00 0.000000e+00 1.735753e+02
      endloop
   endfacet
   facet normal 0.000000e+00 -7.660444e-01 -6.427876e-01
      outer loop
         vertex 1.600000e+01 3.000000e+00 1.700000e+02
         vertex 1.242474e+01 0.000000e+00 1.735753e+02
         vertex 3.575261e+00 0.000000e+00 1.735753e+02
      endloop
   endfacet
   facet normal 0.000000e+00 -7.660444e-01 -6.427876e-01
      outer loop
         vertex 0.000000e+00 3.000000e+00 1.700000e+02
         vertex 1.600000e+01 3.000000e+00 1.700000e+02
         vertex 3.575261e+00 0.000000e+00 1.735753e+02
      endloop
   endfacet
   facet normal 0.000000e+00 -1.000000e+00 0.000000e+00
      outer loop
         vertex 1.242474e+01 0.000000e+00 1.735753e+02
         vertex 1.242474e+01 0.000000e+00 1.824247e+02
         vertex 3.575261e+00 0.000000e+00 1.735753e+02
      endloop
   endfacet
   facet normal -0.000000e+00 -1.000000e+00 0.000000e+00
      outer loop
         vertex 1.242474e+01 0.000000e+00 1.824247e+02
         vertex 3.575261e+00 0.000000e+00 1.824247e+02
         vertex 3.575261e+00 0.000000e+00 1.735753e+02
      endloop
   endfacet
   facet normal 6.427876e-01 -7.660444e-01 0.000000e+00
      outer loop
         vertex 1.600000e+01 3.000000e+00 1.860000e+02
         vertex 1.242474e+01 0.000000e+00 1.824247e+02
         vertex 1.242474e+01 0.000000e+00 1.735753e+02
      endloop
   endfacet
   facet normal 6.427876e-01 -7.660444e-01 0.000000e+00
      outer loop
         vertex 1.600000e+01 3.000000e+00 1.700000e+02
         vertex 1.600000e+01 3.000000e+00 1.860000e+02
         vertex 1.242474e+01 0.000000e+00 1.735753e+02
      endloop
   endfacet
   facet normal -6.427871e-01 -7.660449e-01 -0.000000e+00
      outer loop
         vertex 1.005753e+02 0.000000e+00 1.824247e+02
         vertex 9.700000e+01 3.000000e+00 1.700000e+02
         vertex 1.005753e+02 0.000000e+00 1.735753e+02
      endloop
   endfacet
   facet normal 0.000000e+00 -7.660444e-01 -6.427876e-01
      outer loop
         vertex 1.130000e+02 3.000000e+00 1.700000e+02
         vertex 1.094247e+02 0.000000e+00 1.735753e+02
         vertex 1.005753e+02 0.000000e+00 1.735753e+02
      endloop
   endfacet
   facet normal 0.000000e+00 -7.660444e-01 -6.427876e-01
      outer loop
         vertex 9.700000e+01 3.000000e+00 1.700000e+02
         vertex 1.130000e+02 3.000000e+00 1.700000e+02
         vertex 1.005753e+02 0.000000e+00 1.735753e+02
      endloop
   endfacet
   facet normal -0.000000e+00 -1.000000e+00 0.000000e+00
      outer loop
         vertex 1.094247e+02 0.000000e+00 1.824247e+02
         vertex 1.005753e+02 0.000000e+00 1.824247e+02
         vertex 1.005753e+02 0.000000e+00 1.735753e+02
      endloop
   endfacet
   facet normal 0.000000e+00 -1.000000e+00 0.000000e+00
      outer loop
         vertex 1.094247e+02 0.000000e+00 1.735753e+02
         vertex 1.094247e+02 0.000000e+00 1.824247e+02
         vertex 1.005753e+02 0.000000e+00 1.735753e+02
      endloop
   endfacet
   facet normal 6.427879e-01 -7.660442e-01 0.000000e+00
      outer loop
         vertex 1.130000e+02 3.000000e+00 1.860000e+02
         vertex 1.094247e+02 0.000000e+00 1.824247e+02
         vertex 1.094247e+02 0.000000e+00 1.735753e+02
      endloop
   endfacet
   facet normal 6.427879e-01 -7.660442e-01 0.000000e+00
      outer loop
         vertex 1.130000e+02 3.000000e+00 1.700000e+02
         vertex 1.130000e+02 3.000000e+00 1.860000e+02
         vertex 1.094247e+02 0.000000e+00 1.735753e+02
      endloop
   endfacet
   facet normal -6.427876e-01 -7.660444e-01 -0.000000e+00
      outer loop
         vertex 0.000000e+00 3.000000e+00 1.860000e+02
         vertex 0.000000e+00 3.000000e+00 1.700000e+02
         vertex 3.575261e+00 0.000000e+00 1.824247e+02
      endloop
   endfacet
   facet normal 0.000000e+00 -7.660444e-01 6.427876e-01
      outer loop
         vertex 1.242474e+01 0.000000e+00 1.824247e+02
         vertex 0.000000e+00 3.000000e+00 1.860000e+02
         vertex 3.575261e+00 0.000000e+00 1.824247e+02
      endloop
   endfacet
   facet normal 0.000000e+00 -7.660444e-01 6.427876e-01
      outer loop
         vertex 1.600000e+01 3.000000e+00 1.860000e+02
         vertex 0.000000e+00 3.000000e+00 1.860000e+02
         vertex 1.242474e+01 0.000000e+00 1.824247e+02
      endloop
   endfacet
   facet normal 0.000000e+00 -7.660444e-01 6.427876e-01
      outer loop
         vertex 1.094247e+02 0.000000e+00 1.824247e+02
         vertex 9.700000e+01 3.000000e+00 1.860000e+02
         vertex 1.005753e+02 0.000000e+00 1.824247e+02
      endloop
   endfacet
   facet normal -6.427871e-01 -7.660449e-01 -0.000000e+00
      outer loop
         vertex 9.700000e+01 3.000000e+00 1.860000e+02
         vertex 9.700000e+01 3.000000e+00 1.700000e+02
         vertex 1.005753e+02 0.000000e+00 1.824247e+02
      endloop
   endfacet
   facet normal 0.000000e+00 -7.660444e-01 6.427876e-01
      outer loop
         vertex 1.130000e+02 3.000000e+00 1.860000e+02
         vertex 9.700000e+01 3.000000e+00 1.860000e+02
         vertex 1.094247e+02 0.000000e+00 1.824247e+02
      endloop
   endfacet
   facet normal 0.000000e+00 0.000000e+00 -1.000000e+00
      outer loop
         vertex 0.000000e+00 1.150000e+02 0.000000e+00
         vertex 1.600000e+01 3.000000e+00 0.000000e+00
         vertex 0.000000e+00 3.000000e+00 0.000000e+00
      endloop
   endfacet
   facet normal -1.000000e+00 0.000000e+00 0.000000e+00
      outer loop
         vertex 0.000000e+00 3.000000e+00 1.600000e+01
         vertex 0.000000e+00 1.150000e+02 0.000000e+00
         vertex 0.000000e+00 3.000000e+00 0.000000e+00
      endloop
   endfacet
   facet normal 0.000000e+00 -1.000000e+00 0.000000e+00
      outer loop
         vertex 9.700000e+01 3.000000e+00 0.000000e+00
         vertex 1.600000e+01 3.000000e+00 1.600000e+01
         vertex 1.600000e+01 3.000000e+00 0.000000e+00
      endloop
   endfacet
   facet normal 0.000000e+00 0.000000e+00 -1.000000e+00
      outer loop
         vertex 0.000000e+00 1.150000e+02 0.000000e+00
         vertex 1.130000e+02 1.150000e+02 0.000000e+00
         vertex 1.600000e+01 3.000000e+00 0.000000e+00
      endloop
   endfacet
   facet normal 0.000000e+00 0.000000e+00 -1.000000e+00
      outer loop
         vertex 1.130000e+02 1.150000e+02 0.000000e+00
         vertex 9.700000e+01 3.000000e+00 0.000000e+00
         vertex 1.600000e+01 3.000000e+00 0.000000e+00
      endloop
   endfacet
   facet normal -0.000000e+00 -1.000000e+00 -0.000000e+00
      outer loop
         vertex 9.700000e+01 3.000000e+00 1.600000e+01
         vertex 1.600000e+01 3.000000e+00 1.600000e+01
         vertex 9.700000e+01 3.000000e+00 0.000000e+00
      endloop
   endfacet
   facet normal 0.000000e+00 -0.000000e+00 -1.000000e+00
      outer loop
         vertex 1.130000e+02 1.150000e+02 0.000000e+00
         vertex 1.130000e+02 3.000000e+00 0.000000e+00
         vertex 9.700000e+01 3.000000e+00 0.000000e+00
      endloop
   endfacet
   facet normal 1.000000e+00 0.000000e+00 0.000000e+00
      outer loop
         vertex 1.130000e+02 1.200000e+01 2.999991e+00
         vertex 1.130000e+02 6.000000e+00 2.999991e+00
         vertex 1.130000e+02 3.000000e+00 0.000000e+00
      endloop
   endfacet
   facet normal 1.000000e+00 0.000000e+00 0.000000e+00
      outer loop
         vertex 1.130000e+02 6.000000e+00 2.999991e+00
         vertex 1.130000e+02 3.000000e+00 1.600000e+01
         vertex 1.130000e+02 3.000000e+00 0.000000e+00
      endloop
   endfacet
   facet normal 1.000000e+00 0.000000e+00 0.000000e+00
      outer loop
         vertex 1.130000e+02 1.150000e+02 0.000000e+00
         vertex 1.130000e+02 7.300000e+01 2.999991e+00
         vertex 1.130000e+02 3.000000e+00 0.000000e+00
      endloop
   endfacet
   facet normal 1.000000e+00 0.000000e+00 0.000000e+00
      outer loop
         vertex 1.130000e+02 7.300000e+01 2.999991e+00
         vertex 1.130000e+02 4.300000e+01 2.999991e+00
         vertex 1.130000e+02 3.000000e+00 0.000000e+00
      endloop
   endfacet
   facet normal 1.000000e+00 0.000000e+00 0.000000e+00
      outer loop
         vertex 1.130000e+02 4.300000e+01 2.999991e+00
         vertex 1.130000e+02 3.700000e+01 2.999991e+00
         vertex 1.130000e+02 3.000000e+00 0.000000e+00
      endloop
   endfacet
   facet normal 1.000000e+00 0.000000e+00 0.000000e+00
      outer loop
         vertex 1.130000e+02 3.700000e+01 2.999991e+00
         vertex 1.130000e+02 1.200000e+01 2.999991e+00
         vertex 1.130000e+02 3.000000e+00 0.000000e+00
      endloop
   endfacet
   facet normal 0.000000e+00 -1.000000e+00 0.000000e+00
      outer loop
         vertex 1.600000e+01 3.000000e+00 1.600000e+01
         vertex 0.000000e+00 3.000000e+00 1.700000e+02
         vertex 0.000000e+00 3.000000e+00 1.600000e+01
      endloop
   endfacet
   facet normal -1.000000e+00 0.000000e+00 0.000000e+00
      outer loop
         vertex 0.000000e+00 3.000000e+00 1.700000e+02
         vertex 0.000000e+00 1.150000e+02 1.860000e+02
         vertex 0.000000e+00 3.000000e+00 1.600000e+01
      endloop
   endfacet
   facet normal -1.000000e+00 0.000000e+00 -0.000000e+00
      outer loop
         vertex 0.000000e+00 1.150000e+02 1.860000e+02
         vertex 0.000000e+00 1.150000e+02 0.000000e+00
         vertex 0.000000e+00 3.000000e+00 1.600000e+01
      endloop
   endfacet
   facet normal 0.000000e+00 -1.000000e+00 0.000000e+00
      outer loop
         vertex 9.700000e+01 3.000000e+00 1.600000e+01
         vertex 0.000000e+00 3.000000e+00 1.700000e+02
         vertex 1.600000e+01 3.000000e+00 1.600000e+01
      endloop
   endfacet
   facet normal 0.000000e+00 -1.000000e+00 0.000000e+00
      outer loop
         vertex 1.130000e+02 3.000000e+00 1.600000e+01
         vertex 1.130000e+02 3.000000e+00 1.700000e+02
         vertex 9.700000e+01 3.000000e+00 1.600000e+01
      endloop
   endfacet
   facet normal -0.000000e+00 -1.000000e+00 0.000000e+00
      outer loop
         vertex 1.130000e+02 3.000000e+00 1.700000e+02
         vertex 9.700000e+01 3.000000e+00 1.700000e+02
         vertex 9.700000e+01 3.000000e+00 1.600000e+01
      endloop
   endfacet
   facet normal -0.000000e+00 -1.000000e+00 -0.000000e+00
      outer loop
         vertex 9.700000e+01 3.000000e+00 1.700000e+02
         vertex 1.600000e+01 3.000000e+00 1.700000e+02
         vertex 9.700000e+01 3.000000e+00 1.600000e+01
      endloop
   endfacet
   facet normal -0.000000e+00 -1.000000e+00 -0.000000e+00
      outer loop
         vertex 1.600000e+01 3.000000e+00 1.700000e+02
         vertex 0.000000e+00 3.000000e+00 1.700000e+02
         vertex 9.700000e+01 3.000000e+00 1.600000e+01
      endloop
   endfacet
   facet normal 1.000000e+00 0.000000e+00 0.000000e+00
      outer loop
         vertex 1.130000e+02 6.000000e+00 2.999991e+00
         vertex 1.130000e+02 3.000000e+00 1.700000e+02
         vertex 1.130000e+02 3.000000e+00 1.600000e+01
      endloop
   endfacet
   facet normal -1.000000e+00 0.000000e+00 0.000000e+00
      outer loop
         vertex 0.000000e+00 3.000000e+00 1.860000e+02
         vertex 0.000000e+00 1.150000e+02 1.860000e+02
         vertex 0.000000e+00 3.000000e+00 1.700000e+02
      endloop
   endfacet
   facet normal 0.000000e+00 -1.000000e+00 0.000000e+00
      outer loop
         vertex 9.700000e+01 3.000000e+00 1.700000e+02
         vertex 1.600000e+01 3.000000e+00 1.860000e+02
         vertex 1.600000e+01 3.000000e+00 1.700000e+02
      endloop
   endfacet
   facet normal -0.000000e+00 -1.000000e+00 -0.000000e+00
      outer loop
         vertex 9.700000e+01 3.000000e+00 1.860000e+02
         vertex 1.600000e+01 3.000000e+00 1.860000e+02
         vertex 9.700000e+01 3.000000e+00 1.700000e+02
      endloop
   endfacet
   facet normal 1.000000e+00 0.000000e+00 0.000000e+00
      outer loop
         vertex 1.130000e+02 6.000000e+00 1.830000e+02
         vertex 1.130000e+02 3.000000e+00 1.860000e+02
         vertex 1.130000e+02 3.000000e+00 1.700000e+02
      endloop
   endfacet
   facet normal 1.000000e+00 0.000000e+00 -0.000000e+00
      outer loop
         vertex 1.130000e+02 6.000000e+00 2.999991e+00
         vertex 1.130000e+02 6.000000e+00 1.830000e+02
         vertex 1.130000e+02 3.000000e+00 1.700000e+02
      endloop
   endfacet
   facet normal 0.000000e+00 0.000000e+00 1.000000e+00
      outer loop
         vertex 1.600000e+01 3.000000e+00 1.860000e+02
         vertex 0.000000e+00 1.150000e+02 1.860000e+02
         vertex 0.000000e+00 3.000000e+00 1.860000e+02
      endloop
   endfacet
   facet normal 0.000000e+00 0.000000e+00 1.000000e+00
      outer loop
         vertex 9.700000e+01 3.000000e+00 1.860000e+02
         vertex 0.000000e+00 1.150000e+02 1.860000e+02
         vertex 1.600000e+01 3.000000e+00 1.860000e+02
      endloop
   endfacet
   facet normal 0.000000e+00 -0.000000e+00 1.000000e+00
      outer loop
         vertex 1.130000e+02 3.000000e+00 1.860000e+02
         vertex 1.130000e+02 1.150000e+02 1.860000e+02
         vertex 9.700000e+01 3.000000e+00 1.860000e+02
      endloop
   endfacet
   facet normal 0.000000e+00 0.000000e+00 1.000000e+00
      outer loop
         vertex 1.130000e+02 1.150000e+02 1.860000e+02
         vertex 0.000000e+00 1.150000e+02 1.860000e+02
         vertex 9.700000e+01 3.000000e+00 1.860000e+02
      endloop
   endfacet
   facet normal 1.000000e+00 0.000000e+00 -0.000000e+00
      outer loop
         vertex 1.130000e+02 1.200000e+01 1.830000e+02
         vertex 1.130000e+02 3.700000e+01 1.830000e+02
         vertex 1.130000e+02 3.000000e+00 1.860000e+02
      endloop
   endfacet
   facet normal 1.000000e+00 0.000000e+00 -0.000000e+00
      outer loop
         vertex 1.130000e+02 6.000000e+00 1.830000e+02
         vertex 1.130000e+02 1.200000e+01 1.830000e+02
         vertex 1.130000e+02 3.000000e+00 1.860000e+02
      endloop
   endfacet
   facet normal 1.000000e+00 0.000000e+00 -0.000000e+00
      outer loop
         vertex 1.130000e+02 3.700000e+01 1.830000e+02
         vertex 1.130000e+02 4.300000e+01 1.830000e+02
         vertex 1.130000e+02 3.000000e+00 1.860000e+02
      endloop
   endfacet
   facet normal 1.000000e+00 0.000000e+00 -0.000000e+00
      outer loop
         vertex 1.130000e+02 4.300000e+01 1.830000e+02
         vertex 1.130000e+02 7.300000e+01 1.830000e+02
         vertex 1.130000e+02 3.000000e+00 1.860000e+02
      endloop
   endfacet
   facet normal 1.000000e+00 0.000000e+00 -0.000000e+00
      outer loop
         vertex 1.130000e+02 7.300000e+01 1.830000e+02
         vertex 1.130000e+02 1.150000e+02 1.860000e+02
         vertex 1.130000e+02 3.000000e+00 1.860000e+02
      endloop
   endfacet
   facet normal 0.000000e+00 1.000000e+00 0.000000e+00
      outer loop
         vertex 3.000000e+00 6.000000e+00 1.830000e+02
         vertex 1.130000e+02 6.000000e+00 2.999991e+00
         vertex 3.000000e+00 6.000000e+00 2.999991e+00
      endloop
   endfacet
   facet normal 0.000000e+00 -0.000000e+00 1.000000e+00
      outer loop
         vertex 1.130000e+02 6.000000e+00 2.999991e+00
         vertex 1.130000e+02 1.200000e+01 2.999991e+00
         vertex 3.000000e+00 6.000000e+00 2.999991e+00
      endloop
   endfacet
   facet normal 0.000000e+00 0.000000e+00 1.000000e+00
      outer loop
         vertex 1.130000e+02 1.200000e+01 2.999991e+00
         vertex 3.000000e+00 1.200000e+01 2.999991e+00
         vertex 3.000000e+00 6.000000e+00 2.999991e+00
      endloop
   endfacet
   facet normal 1.000000e+00 0.000000e+00 0.000000e+00
      outer loop
         vertex 3.000000e+00 1.200000e+01 2.999991e+00
         vertex 3.000000e+00 6.000000e+00 1.830000e+02
         vertex 3.000000e+00 6.000000e+00 2.999991e+00
      endloop
   endfacet
   facet normal -0.000000e+00 1.000000e+00 0.000000e+00
      outer loop
         vertex 3.000000e+00 6.000000e+00 1.830000e+02
         vertex 1.130000e+02 6.000000e+00 1.830000e+02
         vertex 1.130000e+02 6.000000e+00 2.999991e+00
      endloop
   endfacet
   facet normal 0.000000e+00 0.000000e+00 -1.000000e+00
      outer loop
         vertex 3.000000e+00 1.200000e+01 1.830000e+02
         vertex 1.130000e+02 6.000000e+00 1.830000e+02
         vertex 3.000000e+00 6.000000e+00 1.830000e+02
      endloop
   endfacet
   facet normal 1.000000e+00 0.000000e+00 -0.000000e+00
      outer loop
         vertex 3.000000e+00 1.200000e+01 2.999991e+00
         vertex 3.000000e+00 1.200000e+01 1.830000e+02
         vertex 3.000000e+00 6.000000e+00 1.830000e+02
      endloop
   endfacet
   facet normal 0.000000e+00 0.000000e+00 -1.000000e+00
      outer loop
         vertex 3.000000e+00 1.200000e+01 1.830000e+02
         vertex 1.130000e+02 1.200000e+01 1.830000e+02
         vertex 1.130000e+02 6.000000e+00 1.830000e+02
      endloop
   endfacet
   facet normal 0.000000e+00 -1.559629e-01 9.877629e-01
      outer loop
         vertex 1.130000e+02 1.200000e+01 2.999991e+00
         vertex 1.130000e+02 3.100000e+01 5.999997e+00
         vertex 3.000000e+00 1.200000e+01 2.999991e+00
      endloop
   endfacet
   facet normal 0.000000e+00 -1.559629e-01 9.877629e-01
      outer loop
         vertex 1.130000e+02 3.100000e+01 5.999997e+00
         vertex 3.000000e+00 3.100000e+01 5.999997e+00
         vertex 3.000000e+00 1.200000e+01 2.999991e+00
      endloop
   endfacet
   facet normal 1.000000e+00 0.000000e+00 0.000000e+00
      outer loop
         vertex 3.000000e+00 3.100000e+01 5.999997e+00
         vertex 3.000000e+00 1.200000e+01 1.830000e+02
         vertex 3.000000e+00 1.200000e+01 2.999991e+00
      endloop
   endfacet
   facet normal 1.000000e+00 0.000000e+00 0.000000e+00
      outer loop
         vertex 1.130000e+02 3.700000e+01 2.999991e+00
         vertex 1.130000e+02 3.100000e+01 5.999997e+00
         vertex 1.130000e+02 1.200000e+01 2.999991e+00
      endloop
   endfacet
   facet normal 0.000000e+00 -1.559626e-01 -9.877630e-01
      outer loop
         vertex 3.000000e+00 3.100000e+01 1.800000e+02
         vertex 1.130000e+02 1.200000e+01 1.830000e+02
         vertex 3.000000e+00 1.200000e+01 1.830000e+02
      endloop
   endfacet
   facet normal 1.000000e+00 0.000000e+00 -0.000000e+00
      outer loop
         vertex 3.000000e+00 3.100000e+01 5.999997e+00
         vertex 3.000000e+00 3.100000e+01 1.800000e+02
         vertex 3.000000e+00 1.200000e+01 1.830000e+02
      endloop
   endfacet
   facet normal 1.000000e+00 0.000000e+00 -0.000000e+00
      outer loop
         vertex 1.130000e+02 3.100000e+01 1.800000e+02
         vertex 1.130000e+02 3.700000e+01 1.830000e+02
         vertex 1.130000e+02 1.200000e+01 1.830000e+02
      endloop
   endfacet
   facet normal 0.000000e+00 -1.559626e-01 -9.877630e-01
      outer loop
         vertex 3.000000e+00 3.100000e+01 1.800000e+02
         vertex 1.130000e+02 3.100000e+01 1.800000e+02
         vertex 1.130000e+02 1.200000e+01 1.830000e+02
      endloop
   endfacet
   facet normal 0.000000e+00 -0.000000e+00 1.000000e+00
      outer loop
         vertex 1.130000e+02 3.100000e+01 5.999997e+00
         vertex 1.130000e+02 3.700000e+01 5.999997e+00
         vertex 3.000000e+00 3.100000e+01 5.999997e+00
      endloop
   endfacet
   facet normal 0.000000e+00 0.000000e+00 1.000000e+00
      outer loop
         vertex 1.130000e+02 3.700000e+01 5.999997e+00
         vertex 3.000000e+00 3.700000e+01 5.999997e+00
         vertex 3.000000e+00 3.100000e+01 5.999997e+00
      endloop
   endfacet
   facet normal 1.000000e+00 0.000000e+00 -0.000000e+00
      outer loop
         vertex 3.000000e+00 3.700000e+01 5.999997e+00
         vertex 3.000000e+00 3.700000e+01 1.800000e+02
         vertex 3.000000e+00 3.100000e+01 5.999997e+00
      endloop
   endfacet
   facet normal 1.000000e+00 0.000000e+00 0.000000e+00
      outer loop
         vertex 3.000000e+00 3.700000e+01 1.800000e+02
         vertex 3.000000e+00 3.100000e+01 1.800000e+02
         vertex 3.000000e+00 3.100000e+01 5.999997e+00
      endloop
   endfacet
   facet normal 1.000000e+00 0.000000e+00 -0.000000e+00
      outer loop
         vertex 1.130000e+02 3.700000e+01 2.999991e+00
         vertex 1.130000e+02 3.700000e+01 5.999997e+00
         vertex 1.130000e+02 3.100000e+01 5.999997e+00
      endloop
   endfacet
   facet normal 0.000000e+00 0.000000e+00 -1.000000e+00
      outer loop
         vertex 3.000000e+00 3.700000e+01 1.800000e+02
         vertex 1.130000e+02 3.100000e+01 1.800000e+02
         vertex 3.000000e+00 3.100000e+01 1.800000e+02
      endloop
   endfacet
   facet normal 1.000000e+00 0.000000e+00 -0.000000e+00
      outer loop
         vertex 1.130000e+02 3.700000e+01 1.800000e+02
         vertex 1.130000e+02 3.700000e+01 1.830000e+02
         vertex 1.130000e+02 3.100000e+01 1.800000e+02
      endloop
   endfacet
   facet normal 0.000000e+00 0.000000e+00 -1.000000e+00
      outer loop
         vertex 3.000000e+00 3.700000e+01 1.800000e+02
         vertex 1.130000e+02 3.700000e+01 1.800000e+02
         vertex 1.130000e+02 3.100000e+01 1.800000e+02
      endloop
   endfacet
   facet normal 0.000000e+00 1.000000e+00 0.000000e+00
      outer loop
         vertex 3.000000e+00 3.700000e+01 5.999997e+00
         vertex 1.130000e+02 3.700000e+01 2.999991e+00
         vertex 3.000000e+00 3.700000e+01 2.999991e+00
      endloop
   endfacet
   facet normal 0.000000e+00 -0.000000e+00 1.000000e+00
      outer loop
         vertex 1.130000e+02 3.700000e+01 2.999991e+00
         vertex 1.130000e+02 4.300000e+01 2.999991e+00
         vertex 3.000000e+00 3.700000e+01 2.999991e+00
      endloop
   endfacet
   facet normal 0.000000e+00 0.000000e+00 1.000000e+00
      outer loop
         vertex 1.130000e+02 4.300000e+01 2.999991e+00
         vertex 3.000000e+00 4.300000e+01 2.999991e+00
         vertex 3.000000e+00 3.700000e+01 2.999991e+00
      endloop
   endfacet
   facet normal 1.000000e+00 0.000000e+00 0.000000e+00
      outer loop
         vertex 3.000000e+00 1.120000e+02 1.830000e+02
         vertex 3.000000e+00 3.700000e+01 5.999997e+00
         vertex 3.000000e+00 3.700000e+01 2.999991e+00
      endloop
   endfacet
   facet normal 1.000000e+00 0.000000e+00 -0.000000e+00
      outer loop
         vertex 3.000000e+00 4.300000e+01 2.999991e+00
         vertex 3.000000e+00 1.120000e+02 1.830000e+02
         vertex 3.000000e+00 3.700000e+01 2.999991e+00
      endloop
   endfacet
   facet normal -0.000000e+00 1.000000e+00 0.000000e+00
      outer loop
         vertex 3.000000e+00 3.700000e+01 5.999997e+00
         vertex 1.130000e+02 3.700000e+01 5.999997e+00
         vertex 1.130000e+02 3.700000e+01 2.999991e+00
      endloop
   endfacet
   facet normal 1.000000e+00 0.000000e+00 0.000000e+00
      outer loop
         vertex 3.000000e+00 1.120000e+02 1.830000e+02
         vertex 3.000000e+00 7.300000e+01 1.800000e+02
         vertex 3.000000e+00 3.700000e+01 5.999997e+00
      endloop
   endfacet
   facet normal 1.000000e+00 -9.251857e-15 1.914177e-15
      outer loop
         vertex 3.000000e+00 7.300000e+01 1.800000e+02
         vertex 3.000000e+00 6.700000e+01 1.800000e+02
         vertex 3.000000e+00 3.700000e+01 5.999997e+00
      endloop
   endfacet
   facet normal 1.000000e+00 1.850372e-15 0.000000e+00
      outer loop
         vertex 3.000000e+00 6.700000e+01 1.800000e+02
         vertex 3.000000e+00 3.700000e+01 1.800000e+02
         vertex 3.000000e+00 3.700000e+01 5.999997e+00
      endloop
   endfacet
   facet normal 0.000000e+00 1.000000e+00 0.000000e+00
      outer loop
         vertex 3.000000e+00 3.700000e+01 1.830000e+02
         vertex 1.130000e+02 3.700000e+01 1.800000e+02
         vertex 3.000000e+00 3.700000e+01 1.800000e+02
      endloop
   endfacet
   facet normal 1.000000e+00 0.000000e+00 0.000000e+00
      outer loop
         vertex 3.000000e+00 4.300000e+01 1.830000e+02
         vertex 3.000000e+00 3.700000e+01 1.830000e+02
         vertex 3.000000e+00 3.700000e+01 1.800000e+02
      endloop
   endfacet
   facet normal 1.000000e+00 1.850372e-15 -3.700744e-15
      outer loop
         vertex 3.000000e+00 6.700000e+01 1.800000e+02
         vertex 3.000000e+00 4.300000e+01 1.830000e+02
         vertex 3.000000e+00 3.700000e+01 1.800000e+02
      endloop
   endfacet
   facet normal -0.000000e+00 1.000000e+00 0.000000e+00
      outer loop
         vertex 3.000000e+00 3.700000e+01 1.830000e+02
         vertex 1.130000e+02 3.700000e+01 1.830000e+02
         vertex 1.130000e+02 3.700000e+01 1.800000e+02
      endloop
   endfacet
   facet normal 0.000000e+00 0.000000e+00 -1.000000e+00
      outer loop
         vertex 3.000000e+00 4.300000e+01 1.830000e+02
         vertex 1.130000e+02 3.700000e+01 1.830000e+02
         vertex 3.000000e+00 3.700000e+01 1.830000e+02
      endloop
   endfacet
   facet normal 0.000000e+00 0.000000e+00 -1.000000e+00
      outer loop
         vertex 3.000000e+00 4.300000e+01 1.830000e+02
         vertex 1.130000e+02 4.300000e+01 1.830000e+02
         vertex 1.130000e+02 3.700000e+01 1.830000e+02
      endloop
   endfacet
   facet normal 0.000000e+00 -1.240350e-01 9.922778e-01
      outer loop
         vertex 1.130000e+02 4.300000e+01 2.999991e+00
         vertex 1.130000e+02 6.700000e+01 5.999997e+00
         vertex 3.000000e+00 4.300000e+01 2.999991e+00
      endloop
   endfacet
   facet normal 0.000000e+00 -1.240350e-01 9.922778e-01
      outer loop
         vertex 1.130000e+02 6.700000e+01 5.999997e+00
         vertex 3.000000e+00 6.700000e+01 5.999997e+00
         vertex 3.000000e+00 4.300000e+01 2.999991e+00
      endloop
   endfacet
   facet normal 1.000000e+00 0.000000e+00 -0.000000e+00
      outer loop
         vertex 3.000000e+00 6.700000e+01 5.999997e+00
         vertex 3.000000e+00 1.120000e+02 1.830000e+02
         vertex 3.000000e+00 4.300000e+01 2.999991e+00
      endloop
   endfacet
   facet normal 1.000000e+00 0.000000e+00 0.000000e+00
      outer loop
         vertex 1.130000e+02 7.300000e+01 2.999991e+00
         vertex 1.130000e+02 6.700000e+01 5.999997e+00
         vertex 1.130000e+02 4.300000e+01 2.999991e+00
      endloop
   endfacet
   facet normal 0.000000e+00 -1.240347e-01 -9.922779e-01
      outer loop
         vertex 3.000000e+00 6.700000e+01 1.800000e+02
         vertex 1.130000e+02 4.300000e+01 1.830000e+02
         vertex 3.000000e+00 4.300000e+01 1.830000e+02
      endloop
   endfacet
   facet normal 1.000000e+00 0.000000e+00 -0.000000e+00
      outer loop
         vertex 1.130000e+02 6.700000e+01 1.800000e+02
         vertex 1.130000e+02 7.300000e+01 1.830000e+02
         vertex 1.130000e+02 4.300000e+01 1.830000e+02
      endloop
   endfacet
   facet normal 0.000000e+00 -1.240347e-01 -9.922779e-01
      outer loop
         vertex 3.000000e+00 6.700000e+01 1.800000e+02
         vertex 1.130000e+02 6.700000e+01 1.800000e+02
         vertex 1.130000e+02 4.300000e+01 1.830000e+02
      endloop
   endfacet
   facet normal 0.000000e+00 -0.000000e+00 1.000000e+00
      outer loop
         vertex 1.130000e+02 6.700000e+01 5.999997e+00
         vertex 1.130000e+02 7.300000e+01 5.999997e+00
         vertex 3.000000e+00 6.700000e+01 5.999997e+00
      endloop
   endfacet
   facet normal 0.000000e+00 0.000000e+00 1.000000e+00
      outer loop
         vertex 1.130000e+02 7.300000e+01 5.999997e+00
         vertex 3.000000e+00 7.300000e+01 5.999997e+00
         vertex 3.000000e+00 6.700000e+01 5.999997e+00
      endloop
   endfacet
   facet normal 1.000000e+00 0.000000e+00 -0.000000e+00
      outer loop
         vertex 3.000000e+00 7.300000e+01 5.999997e+00
         vertex 3.000000e+00 1.120000e+02 1.830000e+02
         vertex 3.000000e+00 6.700000e+01 5.999997e+00
      endloop
   endfacet
   facet normal 1.000000e+00 0.000000e+00 -0.000000e+00
      outer loop
         vertex 1.130000e+02 7.300000e+01 2.999991e+00
         vertex 1.130000e+02 7.300000e+01 5.999997e+00
         vertex 1.130000e+02 6.700000e+01 5.999997e+00
      endloop
   endfacet
   facet normal 0.000000e+00 -0.000000e+00 -1.000000e+00
      outer loop
         vertex 3.000000e+00 7.300000e+01 1.800000e+02
         vertex 1.130000e+02 6.700000e+01 1.800000e+02
         vertex 3.000000e+00 6.700000e+01 1.800000e+02
      endloop
   endfacet
   facet normal 1.000000e+00 0.000000e+00 -0.000000e+00
      outer loop
         vertex 1.130000e+02 7.300000e+01 1.800000e+02
         vertex 1.130000e+02 7.300000e+01 1.830000e+02
         vertex 1.130000e+02 6.700000e+01 1.800000e+02
      endloop
   endfacet
   facet normal 0.000000e+00 0.000000e+00 -1.000000e+00
      outer loop
         vertex 3.000000e+00 7.300000e+01 1.800000e+02
         vertex 1.130000e+02 7.300000e+01 1.800000e+02
         vertex 1.130000e+02 6.700000e+01 1.800000e+02
      endloop
   endfacet
   facet normal 0.000000e+00 1.000000e+00 0.000000e+00
      outer loop
         vertex 3.000000e+00 7.300000e+01 5.999997e+00
         vertex 1.130000e+02 7.300000e+01 2.999991e+00
         vertex 3.000000e+00 7.300000e+01 2.999991e+00
      endloop
   endfacet
   facet normal 0.000000e+00 -0.000000e+00 1.000000e+00
      outer loop
         vertex 1.130000e+02 7.300000e+01 2.999991e+00
         vertex 1.130000e+02 1.120000e+02 2.999991e+00
         vertex 3.000000e+00 7.300000e+01 2.999991e+00
      endloop
   endfacet
   facet normal 0.000000e+00 0.000000e+00 1.000000e+00
      outer loop
         vertex 1.130000e+02 1.120000e+02 2.999991e+00
         vertex 3.000000e+00 1.120000e+02 2.999991e+00
         vertex 3.000000e+00 7.300000e+01 2.999991e+00
      endloop
   endfacet
   facet normal 1.000000e+00 0.000000e+00 0.000000e+00
      outer loop
         vertex 3.000000e+00 1.120000e+02 2.999991e+00
         vertex 3.000000e+00 7.300000e+01 5.999997e+00
         vertex 3.000000e+00 7.300000e+01 2.999991e+00
      endloop
   endfacet
   facet normal 1.000000e+00 0.000000e+00 0.000000e+00
      outer loop
         vertex 1.130000e+02 1.150000e+02 0.000000e+00
         vertex 1.130000e+02 1.120000e+02 2.999991e+00
         vertex 1.130000e+02 7.300000e+01 2.999991e+00
      endloop
   endfacet
   facet normal -0.000000e+00 1.000000e+00 0.000000e+00
      outer loop
         vertex 3.000000e+00 7.300000e+01 5.999997e+00
         vertex 1.130000e+02 7.300000e+01 5.999997e+00
         vertex 1.130000e+02 7.300000e+01 2.999991e+00
      endloop
   endfacet
   facet normal 1.000000e+00 0.000000e+00 -0.000000e+00
      outer loop
         vertex 3.000000e+00 1.120000e+02 2.999991e+00
         vertex 3.000000e+00 1.120000e+02 1.830000e+02
         vertex 3.000000e+00 7.300000e+01 5.999997e+00
      endloop
   endfacet
   facet normal 0.000000e+00 1.000000e+00 0.000000e+00
      outer loop
         vertex 3.000000e+00 7.300000e+01 1.830000e+02
         vertex 1.130000e+02 7.300000e+01 1.800000e+02
         vertex 3.000000e+00 7.300000e+01 1.800000e+02
      endloop
   endfacet
   facet normal 1.000000e+00 0.000000e+00 0.000000e+00
      outer loop
         vertex 3.000000e+00 1.120000e+02 1.830000e+02
         vertex 3.000000e+00 7.300000e+01 1.830000e+02
         vertex 3.000000e+00 7.300000e+01 1.800000e+02
      endloop
   endfacet
   facet normal -0.000000e+00 1.000000e+00 0.000000e+00
      outer loop
         vertex 3.000000e+00 7.300000e+01 1.830000e+02
         vertex 1.130000e+02 7.300000e+01 1.830000e+02
         vertex 1.130000e+02 7.300000e+01 1.800000e+02
      endloop
   endfacet
   facet normal 0.000000e+00 0.000000e+00 -1.000000e+00
      outer loop
         vertex 3.000000e+00 1.120000e+02 1.830000e+02
         vertex 1.130000e+02 7.300000e+01 1.830000e+02
         vertex 3.000000e+00 7.300000e+01 1.830000e+02
      endloop
   endfacet
   facet normal 1.000000e+00 0.000000e+00 -0.000000e+00
      outer loop
         vertex 1.130000e+02 1.120000e+02 1.830000e+02
         vertex 1.130000e+02 1.150000e+02 1.860000e+02
         vertex 1.130000e+02 7.300000e+01 1.830000e+02
      endloop
   endfacet
   facet normal 0.000000e+00 0.000000e+00 -1.000000e+00
      outer loop
         vertex 3.000000e+00 1.120000e+02 1.830000e+02
         vertex 1.130000e+02 1.120000e+02 1.830000e+02
         vertex 1.130000e+02 7.300000e+01 1.830000e+02
      endloop
   endfacet
   facet normal 0.000000e+00 -1.000000e+00 0.000000e+00
      outer loop
         vertex 1.130000e+02 1.120000e+02 2.999991e+00
         vertex 1.130000e+02 1.120000e+02 1.830000e+02
         vertex 3.000000e+00 1.120000e+02 2.999991e+00
      endloop
   endfacet
   facet normal -0.000000e+00 -1.000000e+00 0.000000e+00
      outer loop
         vertex 1.130000e+02 1.120000e+02 1.830000e+02
         vertex 3.000000e+00 1.120000e+02 1.830000e+02
         vertex 3.000000e+00 1.120000e+02 2.999991e+00
      endloop
   endfacet
   facet normal 1.000000e+00 0.000000e+00 0.000000e+00
      outer loop
         vertex 1.130000e+02 1.150000e+02 0.000000e+00
         vertex 1.130000e+02 1.120000e+02 1.830000e+02
         vertex 1.130000e+02 1.120000e+02 2.999991e+00
      endloop
   endfacet
   facet normal 1.000000e+00 0.000000e+00 -0.000000e+00
      outer loop
         vertex 1.130000e+02 1.150000e+02 0.000000e+00
         vertex 1.130000e+02 1.150000e+02 1.860000e+02
         vertex 1.130000e+02 1.120000e+02 1.830000e+02
      endloop
   endfacet
   facet normal -0.000000e+00 1.000000e+00 0.000000e+00
      outer loop
         vertex 0.000000e+00 1.150000e+02 1.860000e+02
         vertex 1.130000e+02 1.150000e+02 1.860000e+02
         vertex 0.000000e+00 1.150000e+02 0.000000e+00
      endloop
   endfacet
   facet normal 0.000000e+00 1.000000e+00 0.000000e+00
      outer loop
         vertex 1.130000e+02 1.150000e+02 1.860000e+02
         vertex 1.130000e+02 1.150000e+02 0.000000e+00
         vertex 0.000000e+00 1.150000e+02 0.000000e+00
      endloop
   endfacet
endsolid