solid Wiha Set
   facet normal 0.000000e+00 -1.000000e+00 0.000000e+00
      outer loop
         vertex 1.110000e+02 0.000000e+00 0.000000e+00
         vertex 1.080000e+02 0.000000e+00 4.000001e+00
         vertex 1.080000e+02 0.000000e+00 0.000000e+00
      endloop
   endfacet
   facet normal -1.000000e+00 0.000000e+00 0.000000e+00
      outer loop
         vertex 1.080000e+02 0.000000e+00 4.000001e+00
         vertex 1.080000e+02 5.000000e+00 4.000001e+00
         vertex 1.080000e+02 0.000000e+00 0.000000e+00
      endloop
   endfacet
   facet normal -1.000000e+00 0.000000e+00 -0.000000e+00
      outer loop
         vertex 1.080000e+02 5.000000e+00 4.000001e+00
         vertex 1.080000e+02 4.050000e+01 0.000000e+00
         vertex 1.080000e+02 0.000000e+00 0.000000e+00
      endloop
   endfacet
   facet normal 0.000000e+00 0.000000e+00 -1.000000e+00
      outer loop
         vertex 1.080000e+02 4.050000e+01 0.000000e+00
         vertex 1.110000e+02 0.000000e+00 0.000000e+00
         vertex 1.080000e+02 0.000000e+00 0.000000e+00
      endloop
   endfacet
   facet normal 0.000000e+00 -1.000000e+00 -0.000000e+00
      outer loop
         vertex 1.110000e+02 0.000000e+00 1.860000e+02
         vertex 1.080000e+02 0.000000e+00 4.000001e+00
         vertex 1.110000e+02 0.000000e+00 0.000000e+00
      endloop
   endfacet
   facet normal 0.000000e+00 0.000000e+00 -1.000000e+00
      outer loop
         vertex 1.080000e+02 4.050000e+01 0.000000e+00
         vertex 1.110000e+02 4.050000e+01 0.000000e+00
         vertex 1.110000e+02 0.000000e+00 0.000000e+00
      endloop
   endfacet
   facet normal 1.000000e+00 0.000000e+00 0.000000e+00
      outer loop
         vertex 1.110000e+02 4.050000e+01 0.000000e+00
         vertex 1.110000e+02 9.847296e+00 9.103039e+01
         vertex 1.110000e+02 0.000000e+00 0.000000e+00
      endloop
   endfacet
   facet normal 1.000000e+00 0.000000e+00 0.000000e+00
      outer loop
         vertex 1.110000e+02 9.847296e+00 9.103039e+01
         vertex 1.110000e+02 9.500000e+00 9.100000e+01
         vertex 1.110000e+02 0.000000e+00 0.000000e+00
      endloop
   endfacet
   facet normal 1.000000e+00 0.000000e+00 0.000000e+00
      outer loop
         vertex 1.110000e+02 9.500000e+00 9.100000e+01
         vertex 1.110000e+02 9.152704e+00 9.103039e+01
         vertex 1.110000e+02 0.000000e+00 0.000000e+00
      endloop
   endfacet
   facet normal 1.000000e+00 0.000000e+00 0.000000e+00
      outer loop
         vertex 1.110000e+02 9.152704e+00 9.103039e+01
         vertex 1.110000e+02 8.815960e+00 9.112062e+01
         vertex 1.110000e+02 0.000000e+00 0.000000e+00
      endloop
   endfacet
   facet normal 1.000000e+00 0.000000e+00 0.000000e+00
      outer loop
         vertex 1.110000e+02 8.815960e+00 9.112062e+01
         vertex 1.110000e+02 8.500000e+00 9.126795e+01
         vertex 1.110000e+02 0.000000e+00 0.000000e+00
      endloop
   endfacet
   facet normal 1.000000e+00 0.000000e+00 0.000000e+00
      outer loop
         vertex 1.110000e+02 8.500000e+00 9.126795e+01
         vertex 1.110000e+02 8.214425e+00 9.146791e+01
         vertex 1.110000e+02 0.000000e+00 0.000000e+00
      endloop
   endfacet
   facet normal 1.000000e+00 0.000000e+00 0.000000e+00
      outer loop
         vertex 1.110000e+02 8.214425e+00 9.146791e+01
         vertex 1.110000e+02 7.967911e+00 9.171443e+01
         vertex 1.110000e+02 0.000000e+00 0.000000e+00
      endloop
   endfacet
   facet normal 1.000000e+00 0.000000e+00 0.000000e+00
      outer loop
         vertex 1.110000e+02 7.967911e+00 9.171443e+01
         vertex 1.110000e+02 7.767949e+00 9.200000e+01
         vertex 1.110000e+02 0.000000e+00 0.000000e+00
      endloop
   endfacet
   facet normal 1.000000e+00 0.000000e+00 0.000000e+00
      outer loop
         vertex 1.110000e+02 7.767949e+00 9.200000e+01
         vertex 1.110000e+02 7.620615e+00 9.231596e+01
         vertex 1.110000e+02 0.000000e+00 0.000000e+00
      endloop
   endfacet
   facet normal 1.000000e+00 0.000000e+00 0.000000e+00
      outer loop
         vertex 1.110000e+02 7.620615e+00 9.231596e+01
         vertex 1.110000e+02 7.530385e+00 9.265271e+01
         vertex 1.110000e+02 0.000000e+00 0.000000e+00
      endloop
   endfacet
   facet normal 1.000000e+00 0.000000e+00 0.000000e+00
      outer loop
         vertex 1.110000e+02 7.530385e+00 9.265271e+01
         vertex 1.110000e+02 7.500000e+00 9.300000e+01
         vertex 1.110000e+02 0.000000e+00 0.000000e+00
      endloop
   endfacet
   facet normal 1.000000e+00 0.000000e+00 0.000000e+00
      outer loop
         vertex 1.110000e+02 7.500000e+00 9.300000e+01
         vertex 1.110000e+02 0.000000e+00 1.860000e+02
         vertex 1.110000e+02 0.000000e+00 0.000000e+00
      endloop
   endfacet
   facet normal 0.000000e+00 0.000000e+00 -1.000000e+00
      outer loop
         vertex 0.000000e+00 5.000000e+00 4.000001e+00
         vertex 1.080000e+02 0.000000e+00 4.000001e+00
         vertex 0.000000e+00 0.000000e+00 4.000001e+00
      endloop
   endfacet
   facet normal -1.000000e+00 0.000000e+00 -0.000000e+00
      outer loop
         vertex 0.000000e+00 5.000000e+00 1.820000e+02
         vertex 0.000000e+00 5.000000e+00 4.000001e+00
         vertex 0.000000e+00 0.000000e+00 4.000001e+00
      endloop
   endfacet
   facet normal -1.000000e+00 0.000000e+00 0.000000e+00
      outer loop
         vertex 0.000000e+00 0.000000e+00 1.820000e+02
         vertex 0.000000e+00 5.000000e+00 1.820000e+02
         vertex 0.000000e+00 0.000000e+00 4.000001e+00
      endloop
   endfacet
   facet normal -0.000000e+00 -1.000000e+00 0.000000e+00
      outer loop
         vertex 1.080000e+02 0.000000e+00 1.820000e+02
         vertex 0.000000e+00 0.000000e+00 1.820000e+02
         vertex 0.000000e+00 0.000000e+00 4.000001e+00
      endloop
   endfacet
   facet normal 0.000000e+00 -1.000000e+00 0.000000e+00
      outer loop
         vertex 1.080000e+02 0.000000e+00 4.000001e+00
         vertex 1.080000e+02 0.000000e+00 1.820000e+02
         vertex 0.000000e+00 0.000000e+00 4.000001e+00
      endloop
   endfacet
   facet normal 0.000000e+00 0.000000e+00 -1.000000e+00
      outer loop
         vertex 0.000000e+00 5.000000e+00 4.000001e+00
         vertex 1.080000e+02 5.000000e+00 4.000001e+00
         vertex 1.080000e+02 0.000000e+00 4.000001e+00
      endloop
   endfacet
   facet normal 0.000000e+00 -1.000000e+00 0.000000e+00
      outer loop
         vertex 1.110000e+02 0.000000e+00 1.860000e+02
         vertex 1.080000e+02 0.000000e+00 1.820000e+02
         vertex 1.080000e+02 0.000000e+00 4.000001e+00
      endloop
   endfacet
   facet normal 0.000000e+00 0.000000e+00 1.000000e+00
      outer loop
         vertex 1.080000e+02 5.000000e+00 1.820000e+02
         vertex 0.000000e+00 5.000000e+00 1.820000e+02
         vertex 0.000000e+00 0.000000e+00 1.820000e+02
      endloop
   endfacet
   facet normal 0.000000e+00 -0.000000e+00 1.000000e+00
      outer loop
         vertex 1.080000e+02 0.000000e+00 1.820000e+02
         vertex 1.080000e+02 5.000000e+00 1.820000e+02
         vertex 0.000000e+00 0.000000e+00 1.820000e+02
      endloop
   endfacet
   facet normal -0.000000e+00 -1.000000e+00 0.000000e+00
      outer loop
         vertex 1.110000e+02 0.000000e+00 1.860000e+02
         vertex 1.080000e+02 0.000000e+00 1.860000e+02
         vertex 1.080000e+02 0.000000e+00 1.820000e+02
      endloop
   endfacet
   facet normal -1.000000e+00 0.000000e+00 0.000000e+00
      outer loop
         vertex 1.080000e+02 0.000000e+00 1.860000e+02
         vertex 1.080000e+02 5.000000e+00 1.820000e+02
         vertex 1.080000e+02 0.000000e+00 1.820000e+02
      endloop
   endfacet
   facet normal -1.000000e+00 -0.000000e+00 0.000000e+00
      outer loop
         vertex 1.080000e+02 4.050000e+01 1.860000e+02
         vertex 1.080000e+02 3.600000e+01 1.808929e+02
         vertex 1.080000e+02 0.000000e+00 1.860000e+02
      endloop
   endfacet
   facet normal -1.000000e+00 0.000000e+00 0.000000e+00
      outer loop
         vertex 1.080000e+02 3.600000e+01 1.808929e+02
         vertex 1.080000e+02 5.000000e+00 1.820000e+02
         vertex 1.080000e+02 0.000000e+00 1.860000e+02
      endloop
   endfacet
   facet normal 0.000000e+00 -0.000000e+00 1.000000e+00
      outer loop
         vertex 1.110000e+02 0.000000e+00 1.860000e+02
         vertex 1.110000e+02 4.050000e+01 1.860000e+02
         vertex 1.080000e+02 0.000000e+00 1.860000e+02
      endloop
   endfacet
   facet normal 0.000000e+00 0.000000e+00 1.000000e+00
      outer loop
         vertex 1.110000e+02 4.050000e+01 1.860000e+02
         vertex 1.080000e+02 4.050000e+01 1.860000e+02
         vertex 1.080000e+02 0.000000e+00 1.860000e+02
      endloop
   endfacet
   facet normal 1.000000e+00 0.000000e+00 -0.000000e+00
      outer loop
         vertex 1.110000e+02 7.620615e+00 9.368404e+01
         vertex 1.110000e+02 7.767949e+00 9.400000e+01
         vertex 1.110000e+02 0.000000e+00 1.860000e+02
      endloop
   endfacet
   facet normal 1.000000e+00 0.000000e+00 -0.000000e+00
      outer loop
         vertex 1.110000e+02 7.767949e+00 9.400000e+01
         vertex 1.110000e+02 4.050000e+01 1.860000e+02
         vertex 1.110000e+02 0.000000e+00 1.860000e+02
      endloop
   endfacet
   facet normal 1.000000e+00 0.000000e+00 -0.000000e+00
      outer loop
         vertex 1.110000e+02 7.500000e+00 9.300000e+01
         vertex 1.110000e+02 7.530385e+00 9.334730e+01
         vertex 1.110000e+02 0.000000e+00 1.860000e+02
      endloop
   endfacet
   facet normal 1.000000e+00 0.000000e+00 -0.000000e+00
      outer loop
         vertex 1.110000e+02 7.530385e+00 9.334730e+01
         vertex 1.110000e+02 7.620615e+00 9.368404e+01
         vertex 1.110000e+02 0.000000e+00 1.860000e+02
      endloop
   endfacet
   facet normal 0.000000e+00 0.000000e+00 1.000000e+00
      outer loop
         vertex 9.000000e+01 4.000000e+00 5.350001e+00
         vertex 1.800000e+01 1.900000e+01 5.350001e+00
         vertex 1.800000e+01 4.000000e+00 5.350001e+00
      endloop
   endfacet
   facet normal 8.715405e-02 0.000000e+00 9.961948e-01
      outer loop
         vertex 1.800000e+01 1.900000e+01 5.350001e+00
         vertex 1.727936e+01 4.000000e+00 5.413048e+00
         vertex 1.800000e+01 4.000000e+00 5.350001e+00
      endloop
   endfacet
   facet normal -0.000000e+00 1.000000e+00 -0.000000e+00
      outer loop
         vertex 1.727936e+01 4.000000e+00 5.413048e+00
         vertex 1.385000e+01 4.000000e+00 9.500004e+00
         vertex 1.800000e+01 4.000000e+00 5.350001e+00
      endloop
   endfacet
   facet normal -0.000000e+00 1.000000e+00 0.000000e+00
      outer loop
         vertex 1.385000e+01 4.000000e+00 9.500004e+00
         vertex 1.800000e+01 4.000000e+00 1.806500e+02
         vertex 1.800000e+01 4.000000e+00 5.350001e+00
      endloop
   endfacet
   facet normal 0.000000e+00 1.000000e+00 0.000000e+00
      outer loop
         vertex 1.800000e+01 4.000000e+00 1.806500e+02
         vertex 9.415000e+01 4.000000e+00 1.765000e+02
         vertex 1.800000e+01 4.000000e+00 5.350001e+00
      endloop
   endfacet
   facet normal 0.000000e+00 1.000000e+00 0.000000e+00
      outer loop
         vertex 9.415000e+01 4.000000e+00 1.765000e+02
         vertex 9.415000e+01 4.000000e+00 9.500004e+00
         vertex 1.800000e+01 4.000000e+00 5.350001e+00
      endloop
   endfacet
   facet normal 0.000000e+00 1.000000e+00 0.000000e+00
      outer loop
         vertex 9.415000e+01 4.000000e+00 9.500004e+00
         vertex 9.000000e+01 4.000000e+00 5.350001e+00
         vertex 1.800000e+01 4.000000e+00 5.350001e+00
      endloop
   endfacet
   facet normal -8.715405e-02 0.000000e+00 9.961948e-01
      outer loop
         vertex 9.072064e+01 1.900000e+01 5.413048e+00
         vertex 9.000000e+01 1.900000e+01 5.350001e+00
         vertex 9.000000e+01 4.000000e+00 5.350001e+00
      endloop
   endfacet
   facet normal -8.715405e-02 0.000000e+00 9.961948e-01
      outer loop
         vertex 9.072064e+01 4.000000e+00 5.413048e+00
         vertex 9.072064e+01 1.900000e+01 5.413048e+00
         vertex 9.000000e+01 4.000000e+00 5.350001e+00
      endloop
   endfacet
   facet normal 0.000000e+00 0.000000e+00 1.000000e+00
      outer loop
         vertex 9.000000e+01 1.900000e+01 5.350001e+00
         vertex 1.800000e+01 1.900000e+01 5.350001e+00
         vertex 9.000000e+01 4.000000e+00 5.350001e+00
      endloop
   endfacet
   facet normal 0.000000e+00 1.000000e+00 0.000000e+00
      outer loop
         vertex 9.359401e+01 4.000000e+00 7.425003e+00
         vertex 9.072064e+01 4.000000e+00 5.413048e+00
         vertex 9.000000e+01 4.000000e+00 5.350001e+00
      endloop
   endfacet
   facet normal 0.000000e+00 1.000000e+00 0.000000e+00
      outer loop
         vertex 9.389973e+01 4.000000e+00 8.080617e+00
         vertex 9.359401e+01 4.000000e+00 7.425003e+00
         vertex 9.000000e+01 4.000000e+00 5.350001e+00
      endloop
   endfacet
   facet normal 0.000000e+00 1.000000e+00 0.000000e+00
      outer loop
         vertex 9.415000e+01 4.000000e+00 9.500004e+00
         vertex 9.408695e+01 4.000000e+00 8.779362e+00
         vertex 9.000000e+01 4.000000e+00 5.350001e+00
      endloop
   endfacet
   facet normal 0.000000e+00 1.000000e+00 0.000000e+00
      outer loop
         vertex 9.408695e+01 4.000000e+00 8.779362e+00
         vertex 9.389973e+01 4.000000e+00 8.080617e+00
         vertex 9.000000e+01 4.000000e+00 5.350001e+00
      endloop
   endfacet
   facet normal 2.588266e-01 0.000000e+00 9.659238e-01
      outer loop
         vertex 1.727936e+01 1.900000e+01 5.413048e+00
         vertex 1.658062e+01 4.000000e+00 5.600281e+00
         vertex 1.727936e+01 4.000000e+00 5.413048e+00
      endloop
   endfacet
   facet normal 8.715405e-02 0.000000e+00 9.961948e-01
      outer loop
         vertex 1.800000e+01 1.900000e+01 5.350001e+00
         vertex 1.727936e+01 1.900000e+01 5.413048e+00
         vertex 1.727936e+01 4.000000e+00 5.413048e+00
      endloop
   endfacet
   facet normal -0.000000e+00 1.000000e+00 -0.000000e+00
      outer loop
         vertex 1.658062e+01 4.000000e+00 5.600281e+00
         vertex 1.385000e+01 4.000000e+00 9.500004e+00
         vertex 1.727936e+01 4.000000e+00 5.413048e+00
      endloop
   endfacet
   facet normal -2.588266e-01 0.000000e+00 9.659238e-01
      outer loop
         vertex 9.141938e+01 1.900000e+01 5.600281e+00
         vertex 9.072064e+01 1.900000e+01 5.413048e+00
         vertex 9.072064e+01 4.000000e+00 5.413048e+00
      endloop
   endfacet
   facet normal -2.588266e-01 0.000000e+00 9.659238e-01
      outer loop
         vertex 9.141938e+01 4.000000e+00 5.600281e+00
         vertex 9.141938e+01 1.900000e+01 5.600281e+00
         vertex 9.072064e+01 4.000000e+00 5.413048e+00
      endloop
   endfacet
   facet normal 0.000000e+00 1.000000e+00 0.000000e+00
      outer loop
         vertex 9.359401e+01 4.000000e+00 7.425003e+00
         vertex 9.141938e+01 4.000000e+00 5.600281e+00
         vertex 9.072064e+01 4.000000e+00 5.413048e+00
      endloop
   endfacet
   facet normal 4.226100e-01 0.000000e+00 9.063116e-01
      outer loop
         vertex 1.658062e+01 1.900000e+01 5.600281e+00
         vertex 1.592500e+01 4.000000e+00 5.905993e+00
         vertex 1.658062e+01 4.000000e+00 5.600281e+00
      endloop
   endfacet
   facet normal 2.588266e-01 0.000000e+00 9.659238e-01
      outer loop
         vertex 1.727936e+01 1.900000e+01 5.413048e+00
         vertex 1.658062e+01 1.900000e+01 5.600281e+00
         vertex 1.658062e+01 4.000000e+00 5.600281e+00
      endloop
   endfacet
   facet normal -0.000000e+00 1.000000e+00 -0.000000e+00
      outer loop
         vertex 1.592500e+01 4.000000e+00 5.905993e+00
         vertex 1.385000e+01 4.000000e+00 9.500004e+00
         vertex 1.658062e+01 4.000000e+00 5.600281e+00
      endloop
   endfacet
   facet normal -4.226100e-01 0.000000e+00 9.063116e-01
      outer loop
         vertex 9.207500e+01 1.900000e+01 5.905993e+00
         vertex 9.141938e+01 1.900000e+01 5.600281e+00
         vertex 9.141938e+01 4.000000e+00 5.600281e+00
      endloop
   endfacet
   facet normal -4.226100e-01 0.000000e+00 9.063116e-01
      outer loop
         vertex 9.207500e+01 4.000000e+00 5.905993e+00
         vertex 9.207500e+01 1.900000e+01 5.905993e+00
         vertex 9.141938e+01 4.000000e+00 5.600281e+00
      endloop
   endfacet
   facet normal 0.000000e+00 1.000000e+00 0.000000e+00
      outer loop
         vertex 9.359401e+01 4.000000e+00 7.425003e+00
         vertex 9.207500e+01 4.000000e+00 5.905993e+00
         vertex 9.141938e+01 4.000000e+00 5.600281e+00
      endloop
   endfacet
   facet normal 5.735792e-01 0.000000e+00 8.191501e-01
      outer loop
         vertex 1.592500e+01 1.900000e+01 5.905993e+00
         vertex 1.533243e+01 4.000000e+00 6.320916e+00
         vertex 1.592500e+01 4.000000e+00 5.905993e+00
      endloop
   endfacet
   facet normal 4.226100e-01 0.000000e+00 9.063116e-01
      outer loop
         vertex 1.658062e+01 1.900000e+01 5.600281e+00
         vertex 1.592500e+01 1.900000e+01 5.905993e+00
         vertex 1.592500e+01 4.000000e+00 5.905993e+00
      endloop
   endfacet
   facet normal -0.000000e+00 1.000000e+00 -0.000000e+00
      outer loop
         vertex 1.533243e+01 4.000000e+00 6.320916e+00
         vertex 1.385000e+01 4.000000e+00 9.500004e+00
         vertex 1.592500e+01 4.000000e+00 5.905993e+00
      endloop
   endfacet
   facet normal -5.735792e-01 0.000000e+00 8.191501e-01
      outer loop
         vertex 9.266757e+01 1.900000e+01 6.320916e+00
         vertex 9.207500e+01 1.900000e+01 5.905993e+00
         vertex 9.207500e+01 4.000000e+00 5.905993e+00
      endloop
   endfacet
   facet normal -5.735792e-01 0.000000e+00 8.191501e-01
      outer loop
         vertex 9.266757e+01 4.000000e+00 6.320916e+00
         vertex 9.266757e+01 1.900000e+01 6.320916e+00
         vertex 9.207500e+01 4.000000e+00 5.905993e+00
      endloop
   endfacet
   facet normal 0.000000e+00 1.000000e+00 0.000000e+00
      outer loop
         vertex 9.317908e+01 4.000000e+00 6.832436e+00
         vertex 9.266757e+01 4.000000e+00 6.320916e+00
         vertex 9.207500e+01 4.000000e+00 5.905993e+00
      endloop
   endfacet
   facet normal 0.000000e+00 1.000000e+00 0.000000e+00
      outer loop
         vertex 9.359401e+01 4.000000e+00 7.425003e+00
         vertex 9.317908e+01 4.000000e+00 6.832436e+00
         vertex 9.207500e+01 4.000000e+00 5.905993e+00
      endloop
   endfacet
   facet normal 7.071094e-01 0.000000e+00 7.071042e-01
      outer loop
         vertex 1.533243e+01 1.900000e+01 6.320916e+00
         vertex 1.482092e+01 4.000000e+00 6.832436e+00
         vertex 1.533243e+01 4.000000e+00 6.320916e+00
      endloop
   endfacet
   facet normal 5.735792e-01 0.000000e+00 8.191501e-01
      outer loop
         vertex 1.592500e+01 1.900000e+01 5.905993e+00
         vertex 1.533243e+01 1.900000e+01 6.320916e+00
         vertex 1.533243e+01 4.000000e+00 6.320916e+00
      endloop
   endfacet
   facet normal -0.000000e+00 1.000000e+00 -0.000000e+00
      outer loop
         vertex 1.482092e+01 4.000000e+00 6.832436e+00
         vertex 1.385000e+01 4.000000e+00 9.500004e+00
         vertex 1.533243e+01 4.000000e+00 6.320916e+00
      endloop
   endfacet
   facet normal -7.071094e-01 0.000000e+00 7.071042e-01
      outer loop
         vertex 9.317908e+01 1.900000e+01 6.832436e+00
         vertex 9.266757e+01 1.900000e+01 6.320916e+00
         vertex 9.266757e+01 4.000000e+00 6.320916e+00
      endloop
   endfacet
   facet normal -7.071094e-01 0.000000e+00 7.071042e-01
      outer loop
         vertex 9.317908e+01 4.000000e+00 6.832436e+00
         vertex 9.317908e+01 1.900000e+01 6.832436e+00
         vertex 9.266757e+01 4.000000e+00 6.320916e+00
      endloop
   endfacet
   facet normal 8.191501e-01 0.000000e+00 5.735792e-01
      outer loop
         vertex 1.482092e+01 1.900000e+01 6.832436e+00
         vertex 1.440600e+01 4.000000e+00 7.425003e+00
         vertex 1.482092e+01 4.000000e+00 6.832436e+00
      endloop
   endfacet
   facet normal 7.071094e-01 0.000000e+00 7.071042e-01
      outer loop
         vertex 1.533243e+01 1.900000e+01 6.320916e+00
         vertex 1.482092e+01 1.900000e+01 6.832436e+00
         vertex 1.482092e+01 4.000000e+00 6.832436e+00
      endloop
   endfacet
   facet normal -0.000000e+00 1.000000e+00 -0.000000e+00
      outer loop
         vertex 1.440600e+01 4.000000e+00 7.425003e+00
         vertex 1.410028e+01 4.000000e+00 8.080617e+00
         vertex 1.482092e+01 4.000000e+00 6.832436e+00
      endloop
   endfacet
   facet normal -0.000000e+00 1.000000e+00 -0.000000e+00
      outer loop
         vertex 1.410028e+01 4.000000e+00 8.080617e+00
         vertex 1.391305e+01 4.000000e+00 8.779362e+00
         vertex 1.482092e+01 4.000000e+00 6.832436e+00
      endloop
   endfacet
   facet normal -0.000000e+00 1.000000e+00 -0.000000e+00
      outer loop
         vertex 1.391305e+01 4.000000e+00 8.779362e+00
         vertex 1.385000e+01 4.000000e+00 9.500004e+00
         vertex 1.482092e+01 4.000000e+00 6.832436e+00
      endloop
   endfacet
   facet normal -8.191501e-01 0.000000e+00 5.735792e-01
      outer loop
         vertex 9.359401e+01 1.900000e+01 7.425003e+00
         vertex 9.317908e+01 1.900000e+01 6.832436e+00
         vertex 9.317908e+01 4.000000e+00 6.832436e+00
      endloop
   endfacet
   facet normal -8.191501e-01 0.000000e+00 5.735792e-01
      outer loop
         vertex 9.359401e+01 4.000000e+00 7.425003e+00
         vertex 9.359401e+01 1.900000e+01 7.425003e+00
         vertex 9.317908e+01 4.000000e+00 6.832436e+00
      endloop
   endfacet
   facet normal 9.063068e-01 0.000000e+00 4.226204e-01
      outer loop
         vertex 1.440600e+01 1.900000e+01 7.425003e+00
         vertex 1.410028e+01 4.000000e+00 8.080617e+00
         vertex 1.440600e+01 4.000000e+00 7.425003e+00
      endloop
   endfacet
   facet normal 8.191501e-01 0.000000e+00 5.735792e-01
      outer loop
         vertex 1.482092e+01 1.900000e+01 6.832436e+00
         vertex 1.440600e+01 1.900000e+01 7.425003e+00
         vertex 1.440600e+01 4.000000e+00 7.425003e+00
      endloop
   endfacet
   facet normal -9.063068e-01 0.000000e+00 4.226204e-01
      outer loop
         vertex 9.389973e+01 1.900000e+01 8.080617e+00
         vertex 9.359401e+01 1.900000e+01 7.425003e+00
         vertex 9.359401e+01 4.000000e+00 7.425003e+00
      endloop
   endfacet
   facet normal -9.063068e-01 0.000000e+00 4.226204e-01
      outer loop
         vertex 9.389973e+01 4.000000e+00 8.080617e+00
         vertex 9.389973e+01 1.900000e+01 8.080617e+00
         vertex 9.359401e+01 4.000000e+00 7.425003e+00
      endloop
   endfacet
   facet normal 9.659267e-01 0.000000e+00 2.588157e-01
      outer loop
         vertex 1.410028e+01 1.900000e+01 8.080617e+00
         vertex 1.391305e+01 4.000000e+00 8.779362e+00
         vertex 1.410028e+01 4.000000e+00 8.080617e+00
      endloop
   endfacet
   facet normal 9.063068e-01 0.000000e+00 4.226204e-01
      outer loop
         vertex 1.440600e+01 1.900000e+01 7.425003e+00
         vertex 1.410028e+01 1.900000e+01 8.080617e+00
         vertex 1.410028e+01 4.000000e+00 8.080617e+00
      endloop
   endfacet
   facet normal -9.659267e-01 0.000000e+00 2.588157e-01
      outer loop
         vertex 9.408695e+01 1.900000e+01 8.779362e+00
         vertex 9.389973e+01 1.900000e+01 8.080617e+00
         vertex 9.389973e+01 4.000000e+00 8.080617e+00
      endloop
   endfacet
   facet normal -9.659267e-01 0.000000e+00 2.588157e-01
      outer loop
         vertex 9.408695e+01 4.000000e+00 8.779362e+00
         vertex 9.408695e+01 1.900000e+01 8.779362e+00
         vertex 9.389973e+01 4.000000e+00 8.080617e+00
      endloop
   endfacet
   facet normal 9.961944e-01 0.000000e+00 8.715916e-02
      outer loop
         vertex 1.391305e+01 1.900000e+01 8.779362e+00
         vertex 1.385000e+01 4.000000e+00 9.500004e+00
         vertex 1.391305e+01 4.000000e+00 8.779362e+00
      endloop
   endfacet
   facet normal 9.659267e-01 0.000000e+00 2.588157e-01
      outer loop
         vertex 1.410028e+01 1.900000e+01 8.080617e+00
         vertex 1.391305e+01 1.900000e+01 8.779362e+00
         vertex 1.391305e+01 4.000000e+00 8.779362e+00
      endloop
   endfacet
   facet normal -9.961944e-01 0.000000e+00 8.715916e-02
      outer loop
         vertex 9.415000e+01 1.900000e+01 9.500004e+00
         vertex 9.408695e+01 1.900000e+01 8.779362e+00
         vertex 9.408695e+01 4.000000e+00 8.779362e+00
      endloop
   endfacet
   facet normal -9.961944e-01 0.000000e+00 8.715916e-02
      outer loop
         vertex 9.415000e+01 4.000000e+00 9.500004e+00
         vertex 9.415000e+01 1.900000e+01 9.500004e+00
         vertex 9.408695e+01 4.000000e+00 8.779362e+00
      endloop
   endfacet
   facet normal 9.961944e-01 0.000000e+00 8.715916e-02
      outer loop
         vertex 1.391305e+01 1.900000e+01 8.779362e+00
         vertex 1.385000e+01 1.900000e+01 9.500004e+00
         vertex 1.385000e+01 4.000000e+00 9.500004e+00
      endloop
   endfacet
   facet normal 1.000000e+00 0.000000e+00 -0.000000e+00
      outer loop
         vertex 1.385000e+01 1.900000e+01 9.500004e+00
         vertex 1.385000e+01 1.900000e+01 1.765000e+02
         vertex 1.385000e+01 4.000000e+00 9.500004e+00
      endloop
   endfacet
   facet normal 1.000000e+00 0.000000e+00 0.000000e+00
      outer loop
         vertex 1.385000e+01 1.900000e+01 1.765000e+02
         vertex 1.385000e+01 4.000000e+00 1.765000e+02
         vertex 1.385000e+01 4.000000e+00 9.500004e+00
      endloop
   endfacet
   facet normal -0.000000e+00 1.000000e+00 0.000000e+00
      outer loop
         vertex 1.385000e+01 4.000000e+00 1.765000e+02
         vertex 1.800000e+01 4.000000e+00 1.806500e+02
         vertex 1.385000e+01 4.000000e+00 9.500004e+00
      endloop
   endfacet
   facet normal -1.000000e+00 0.000000e+00 0.000000e+00
      outer loop
         vertex 9.415000e+01 4.000000e+00 1.765000e+02
         vertex 9.415000e+01 1.900000e+01 9.500004e+00
         vertex 9.415000e+01 4.000000e+00 9.500004e+00
      endloop
   endfacet
   facet normal 9.961944e-01 0.000000e+00 -8.715916e-02
      outer loop
         vertex 1.385000e+01 1.900000e+01 1.765000e+02
         vertex 1.391305e+01 4.000000e+00 1.772206e+02
         vertex 1.385000e+01 4.000000e+00 1.765000e+02
      endloop
   endfacet
   facet normal -0.000000e+00 1.000000e+00 0.000000e+00
      outer loop
         vertex 1.391305e+01 4.000000e+00 1.772206e+02
         vertex 1.800000e+01 4.000000e+00 1.806500e+02
         vertex 1.385000e+01 4.000000e+00 1.765000e+02
      endloop
   endfacet
   facet normal -9.961944e-01 0.000000e+00 -8.715916e-02
      outer loop
         vertex 9.408695e+01 1.900000e+01 1.772206e+02
         vertex 9.415000e+01 1.900000e+01 1.765000e+02
         vertex 9.415000e+01 4.000000e+00 1.765000e+02
      endloop
   endfacet
   facet normal -9.961944e-01 0.000000e+00 -8.715916e-02
      outer loop
         vertex 9.408695e+01 4.000000e+00 1.772206e+02
         vertex 9.408695e+01 1.900000e+01 1.772206e+02
         vertex 9.415000e+01 4.000000e+00 1.765000e+02
      endloop
   endfacet
   facet normal -1.000000e+00 -0.000000e+00 -0.000000e+00
      outer loop
         vertex 9.415000e+01 1.900000e+01 1.765000e+02
         vertex 9.415000e+01 1.900000e+01 9.500004e+00
         vertex 9.415000e+01 4.000000e+00 1.765000e+02
      endloop
   endfacet
   facet normal -0.000000e+00 1.000000e+00 0.000000e+00
      outer loop
         vertex 1.800000e+01 4.000000e+00 1.806500e+02
         vertex 9.000000e+01 4.000000e+00 1.806500e+02
         vertex 9.415000e+01 4.000000e+00 1.765000e+02
      endloop
   endfacet
   facet normal 0.000000e+00 1.000000e+00 0.000000e+00
      outer loop
         vertex 9.000000e+01 4.000000e+00 1.806500e+02
         vertex 9.072064e+01 4.000000e+00 1.805870e+02
         vertex 9.415000e+01 4.000000e+00 1.765000e+02
      endloop
   endfacet
   facet normal 0.000000e+00 1.000000e+00 0.000000e+00
      outer loop
         vertex 9.072064e+01 4.000000e+00 1.805870e+02
         vertex 9.141938e+01 4.000000e+00 1.803997e+02
         vertex 9.415000e+01 4.000000e+00 1.765000e+02
      endloop
   endfacet
   facet normal 0.000000e+00 1.000000e+00 0.000000e+00
      outer loop
         vertex 9.141938e+01 4.000000e+00 1.803997e+02
         vertex 9.207500e+01 4.000000e+00 1.800940e+02
         vertex 9.415000e+01 4.000000e+00 1.765000e+02
      endloop
   endfacet
   facet normal 0.000000e+00 1.000000e+00 0.000000e+00
      outer loop
         vertex 9.207500e+01 4.000000e+00 1.800940e+02
         vertex 9.266757e+01 4.000000e+00 1.796791e+02
         vertex 9.415000e+01 4.000000e+00 1.765000e+02
      endloop
   endfacet
   facet normal 0.000000e+00 1.000000e+00 0.000000e+00
      outer loop
         vertex 9.266757e+01 4.000000e+00 1.796791e+02
         vertex 9.317908e+01 4.000000e+00 1.791676e+02
         vertex 9.415000e+01 4.000000e+00 1.765000e+02
      endloop
   endfacet
   facet normal 0.000000e+00 1.000000e+00 0.000000e+00
      outer loop
         vertex 9.317908e+01 4.000000e+00 1.791676e+02
         vertex 9.408695e+01 4.000000e+00 1.772206e+02
         vertex 9.415000e+01 4.000000e+00 1.765000e+02
      endloop
   endfacet
   facet normal 9.659267e-01 0.000000e+00 -2.588157e-01
      outer loop
         vertex 1.391305e+01 1.900000e+01 1.772206e+02
         vertex 1.410028e+01 4.000000e+00 1.779194e+02
         vertex 1.391305e+01 4.000000e+00 1.772206e+02
      endloop
   endfacet
   facet normal 9.961944e-01 0.000000e+00 -8.715916e-02
      outer loop
         vertex 1.385000e+01 1.900000e+01 1.765000e+02
         vertex 1.391305e+01 1.900000e+01 1.772206e+02
         vertex 1.391305e+01 4.000000e+00 1.772206e+02
      endloop
   endfacet
   facet normal -0.000000e+00 1.000000e+00 0.000000e+00
      outer loop
         vertex 1.592500e+01 4.000000e+00 1.800940e+02
         vertex 1.658062e+01 4.000000e+00 1.803997e+02
         vertex 1.391305e+01 4.000000e+00 1.772206e+02
      endloop
   endfacet
   facet normal -0.000000e+00 1.000000e+00 0.000000e+00
      outer loop
         vertex 1.658062e+01 4.000000e+00 1.803997e+02
         vertex 1.727936e+01 4.000000e+00 1.805870e+02
         vertex 1.391305e+01 4.000000e+00 1.772206e+02
      endloop
   endfacet
   facet normal -0.000000e+00 1.000000e+00 0.000000e+00
      outer loop
         vertex 1.727936e+01 4.000000e+00 1.805870e+02
         vertex 1.800000e+01 4.000000e+00 1.806500e+02
         vertex 1.391305e+01 4.000000e+00 1.772206e+02
      endloop
   endfacet
   facet normal -0.000000e+00 1.000000e+00 0.000000e+00
      outer loop
         vertex 1.410028e+01 4.000000e+00 1.779194e+02
         vertex 1.482092e+01 4.000000e+00 1.791676e+02
         vertex 1.391305e+01 4.000000e+00 1.772206e+02
      endloop
   endfacet
   facet normal -0.000000e+00 1.000000e+00 0.000000e+00
      outer loop
         vertex 1.482092e+01 4.000000e+00 1.791676e+02
         vertex 1.533243e+01 4.000000e+00 1.796791e+02
         vertex 1.391305e+01 4.000000e+00 1.772206e+02
      endloop
   endfacet
   facet normal -0.000000e+00 1.000000e+00 0.000000e+00
      outer loop
         vertex 1.533243e+01 4.000000e+00 1.796791e+02
         vertex 1.592500e+01 4.000000e+00 1.800940e+02
         vertex 1.391305e+01 4.000000e+00 1.772206e+02
      endloop
   endfacet
   facet normal -9.659267e-01 0.000000e+00 -2.588157e-01
      outer loop
         vertex 9.389973e+01 1.900000e+01 1.779194e+02
         vertex 9.408695e+01 1.900000e+01 1.772206e+02
         vertex 9.408695e+01 4.000000e+00 1.772206e+02
      endloop
   endfacet
   facet normal -9.659267e-01 0.000000e+00 -2.588157e-01
      outer loop
         vertex 9.389973e+01 4.000000e+00 1.779194e+02
         vertex 9.389973e+01 1.900000e+01 1.779194e+02
         vertex 9.408695e+01 4.000000e+00 1.772206e+02
      endloop
   endfacet
   facet normal 0.000000e+00 1.000000e+00 0.000000e+00
      outer loop
         vertex 9.317908e+01 4.000000e+00 1.791676e+02
         vertex 9.389973e+01 4.000000e+00 1.779194e+02
         vertex 9.408695e+01 4.000000e+00 1.772206e+02
      endloop
   endfacet
   facet normal 9.063068e-01 0.000000e+00 -4.226204e-01
      outer loop
         vertex 1.410028e+01 1.900000e+01 1.779194e+02
         vertex 1.440600e+01 4.000000e+00 1.785750e+02
         vertex 1.410028e+01 4.000000e+00 1.779194e+02
      endloop
   endfacet
   facet normal 9.659267e-01 0.000000e+00 -2.588157e-01
      outer loop
         vertex 1.391305e+01 1.900000e+01 1.772206e+02
         vertex 1.410028e+01 1.900000e+01 1.779194e+02
         vertex 1.410028e+01 4.000000e+00 1.779194e+02
      endloop
   endfacet
   facet normal -0.000000e+00 1.000000e+00 0.000000e+00
      outer loop
         vertex 1.440600e+01 4.000000e+00 1.785750e+02
         vertex 1.482092e+01 4.000000e+00 1.791676e+02
         vertex 1.410028e+01 4.000000e+00 1.779194e+02
      endloop
   endfacet
   facet normal -9.063068e-01 0.000000e+00 -4.226204e-01
      outer loop
         vertex 9.359401e+01 1.900000e+01 1.785750e+02
         vertex 9.389973e+01 1.900000e+01 1.779194e+02
         vertex 9.389973e+01 4.000000e+00 1.779194e+02
      endloop
   endfacet
   facet normal -9.063068e-01 0.000000e+00 -4.226204e-01
      outer loop
         vertex 9.359401e+01 4.000000e+00 1.785750e+02
         vertex 9.359401e+01 1.900000e+01 1.785750e+02
         vertex 9.389973e+01 4.000000e+00 1.779194e+02
      endloop
   endfacet
   facet normal 0.000000e+00 1.000000e+00 0.000000e+00
      outer loop
         vertex 9.317908e+01 4.000000e+00 1.791676e+02
         vertex 9.359401e+01 4.000000e+00 1.785750e+02
         vertex 9.389973e+01 4.000000e+00 1.779194e+02
      endloop
   endfacet
   facet normal 8.191501e-01 0.000000e+00 -5.735792e-01
      outer loop
         vertex 1.440600e+01 1.900000e+01 1.785750e+02
         vertex 1.482092e+01 4.000000e+00 1.791676e+02
         vertex 1.440600e+01 4.000000e+00 1.785750e+02
      endloop
   endfacet
   facet normal 9.063068e-01 0.000000e+00 -4.226204e-01
      outer loop
         vertex 1.410028e+01 1.900000e+01 1.779194e+02
         vertex 1.440600e+01 1.900000e+01 1.785750e+02
         vertex 1.440600e+01 4.000000e+00 1.785750e+02
      endloop
   endfacet
   facet normal -8.191501e-01 0.000000e+00 -5.735792e-01
      outer loop
         vertex 9.317908e+01 1.900000e+01 1.791676e+02
         vertex 9.359401e+01 1.900000e+01 1.785750e+02
         vertex 9.359401e+01 4.000000e+00 1.785750e+02
      endloop
   endfacet
   facet normal -8.191501e-01 0.000000e+00 -5.735792e-01
      outer loop
         vertex 9.317908e+01 4.000000e+00 1.791676e+02
         vertex 9.317908e+01 1.900000e+01 1.791676e+02
         vertex 9.359401e+01 4.000000e+00 1.785750e+02
      endloop
   endfacet
   facet normal 7.071094e-01 0.000000e+00 -7.071042e-01
      outer loop
         vertex 1.482092e+01 1.900000e+01 1.791676e+02
         vertex 1.533243e+01 4.000000e+00 1.796791e+02
         vertex 1.482092e+01 4.000000e+00 1.791676e+02
      endloop
   endfacet
   facet normal 8.191501e-01 0.000000e+00 -5.735792e-01
      outer loop
         vertex 1.440600e+01 1.900000e+01 1.785750e+02
         vertex 1.482092e+01 1.900000e+01 1.791676e+02
         vertex 1.482092e+01 4.000000e+00 1.791676e+02
      endloop
   endfacet
   facet normal -7.071094e-01 0.000000e+00 -7.071042e-01
      outer loop
         vertex 9.266757e+01 1.900000e+01 1.796791e+02
         vertex 9.317908e+01 1.900000e+01 1.791676e+02
         vertex 9.317908e+01 4.000000e+00 1.791676e+02
      endloop
   endfacet
   facet normal -7.071094e-01 0.000000e+00 -7.071042e-01
      outer loop
         vertex 9.266757e+01 4.000000e+00 1.796791e+02
         vertex 9.266757e+01 1.900000e+01 1.796791e+02
         vertex 9.317908e+01 4.000000e+00 1.791676e+02
      endloop
   endfacet
   facet normal 5.735792e-01 0.000000e+00 -8.191501e-01
      outer loop
         vertex 1.533243e+01 1.900000e+01 1.796791e+02
         vertex 1.592500e+01 4.000000e+00 1.800940e+02
         vertex 1.533243e+01 4.000000e+00 1.796791e+02
      endloop
   endfacet
   facet normal 7.071094e-01 0.000000e+00 -7.071042e-01
      outer loop
         vertex 1.482092e+01 1.900000e+01 1.791676e+02
         vertex 1.533243e+01 1.900000e+01 1.796791e+02
         vertex 1.533243e+01 4.000000e+00 1.796791e+02
      endloop
   endfacet
   facet normal -5.735792e-01 0.000000e+00 -8.191501e-01
      outer loop
         vertex 9.207500e+01 1.900000e+01 1.800940e+02
         vertex 9.266757e+01 1.900000e+01 1.796791e+02
         vertex 9.266757e+01 4.000000e+00 1.796791e+02
      endloop
   endfacet
   facet normal -5.735792e-01 0.000000e+00 -8.191501e-01
      outer loop
         vertex 9.207500e+01 4.000000e+00 1.800940e+02
         vertex 9.207500e+01 1.900000e+01 1.800940e+02
         vertex 9.266757e+01 4.000000e+00 1.796791e+02
      endloop
   endfacet
   facet normal 4.226100e-01 0.000000e+00 -9.063116e-01
      outer loop
         vertex 1.592500e+01 1.900000e+01 1.800940e+02
         vertex 1.658062e+01 4.000000e+00 1.803997e+02
         vertex 1.592500e+01 4.000000e+00 1.800940e+02
      endloop
   endfacet
   facet normal 5.735792e-01 0.000000e+00 -8.191501e-01
      outer loop
         vertex 1.533243e+01 1.900000e+01 1.796791e+02
         vertex 1.592500e+01 1.900000e+01 1.800940e+02
         vertex 1.592500e+01 4.000000e+00 1.800940e+02
      endloop
   endfacet
   facet normal -4.226100e-01 0.000000e+00 -9.063116e-01
      outer loop
         vertex 9.141938e+01 1.900000e+01 1.803997e+02
         vertex 9.207500e+01 1.900000e+01 1.800940e+02
         vertex 9.207500e+01 4.000000e+00 1.800940e+02
      endloop
   endfacet
   facet normal -4.226100e-01 0.000000e+00 -9.063116e-01
      outer loop
         vertex 9.141938e+01 4.000000e+00 1.803997e+02
         vertex 9.141938e+01 1.900000e+01 1.803997e+02
         vertex 9.207500e+01 4.000000e+00 1.800940e+02
      endloop
   endfacet
   facet normal 2.588266e-01 0.000000e+00 -9.659238e-01
      outer loop
         vertex 1.658062e+01 1.900000e+01 1.803997e+02
         vertex 1.727936e+01 4.000000e+00 1.805870e+02
         vertex 1.658062e+01 4.000000e+00 1.803997e+02
      endloop
   endfacet
   facet normal 4.226100e-01 0.000000e+00 -9.063116e-01
      outer loop
         vertex 1.592500e+01 1.900000e+01 1.800940e+02
         vertex 1.658062e+01 1.900000e+01 1.803997e+02
         vertex 1.658062e+01 4.000000e+00 1.803997e+02
      endloop
   endfacet
   facet normal -2.588266e-01 0.000000e+00 -9.659238e-01
      outer loop
         vertex 9.072064e+01 1.900000e+01 1.805870e+02
         vertex 9.141938e+01 1.900000e+01 1.803997e+02
         vertex 9.141938e+01 4.000000e+00 1.803997e+02
      endloop
   endfacet
   facet normal -2.588266e-01 0.000000e+00 -9.659238e-01
      outer loop
         vertex 9.072064e+01 4.000000e+00 1.805870e+02
         vertex 9.072064e+01 1.900000e+01 1.805870e+02
         vertex 9.141938e+01 4.000000e+00 1.803997e+02
      endloop
   endfacet
   facet normal 8.715405e-02 0.000000e+00 -9.961948e-01
      outer loop
         vertex 1.727936e+01 1.900000e+01 1.805870e+02
         vertex 1.800000e+01 4.000000e+00 1.806500e+02
         vertex 1.727936e+01 4.000000e+00 1.805870e+02
      endloop
   endfacet
   facet normal 2.588266e-01 0.000000e+00 -9.659238e-01
      outer loop
         vertex 1.658062e+01 1.900000e+01 1.803997e+02
         vertex 1.727936e+01 1.900000e+01 1.805870e+02
         vertex 1.727936e+01 4.000000e+00 1.805870e+02
      endloop
   endfacet
   facet normal -8.715405e-02 0.000000e+00 -9.961948e-01
      outer loop
         vertex 9.000000e+01 1.900000e+01 1.806500e+02
         vertex 9.072064e+01 1.900000e+01 1.805870e+02
         vertex 9.072064e+01 4.000000e+00 1.805870e+02
      endloop
   endfacet
   facet normal -8.715405e-02 0.000000e+00 -9.961948e-01
      outer loop
         vertex 9.000000e+01 4.000000e+00 1.806500e+02
         vertex 9.000000e+01 1.900000e+01 1.806500e+02
         vertex 9.072064e+01 4.000000e+00 1.805870e+02
      endloop
   endfacet
   facet normal 8.715405e-02 0.000000e+00 -9.961948e-01
      outer loop
         vertex 1.727936e+01 1.900000e+01 1.805870e+02
         vertex 1.800000e+01 1.900000e+01 1.806500e+02
         vertex 1.800000e+01 4.000000e+00 1.806500e+02
      endloop
   endfacet
   facet normal 0.000000e+00 0.000000e+00 -1.000000e+00
      outer loop
         vertex 1.800000e+01 1.900000e+01 1.806500e+02
         vertex 9.000000e+01 1.900000e+01 1.806500e+02
         vertex 1.800000e+01 4.000000e+00 1.806500e+02
      endloop
   endfacet
   facet normal 0.000000e+00 -0.000000e+00 -1.000000e+00
      outer loop
         vertex 9.000000e+01 1.900000e+01 1.806500e+02
         vertex 9.000000e+01 4.000000e+00 1.806500e+02
         vertex 1.800000e+01 4.000000e+00 1.806500e+02
      endloop
   endfacet
   facet normal 0.000000e+00 3.569160e-02 -9.993629e-01
      outer loop
         vertex 8.000001e+00 1.900000e+01 4.500002e+00
         vertex 1.080000e+02 5.000000e+00 4.000001e+00
         vertex 0.000000e+00 5.000000e+00 4.000001e+00
      endloop
   endfacet
   facet normal -8.682431e-01 4.961390e-01 0.000000e+00
      outer loop
         vertex 0.000000e+00 5.000000e+00 1.820000e+02
         vertex 8.000001e+00 1.900000e+01 1.815000e+02
         vertex 0.000000e+00 5.000000e+00 4.000001e+00
      endloop
   endfacet
   facet normal -8.682431e-01 4.961390e-01 0.000000e+00
      outer loop
         vertex 8.000001e+00 1.900000e+01 1.815000e+02
         vertex 8.000001e+00 1.900000e+01 4.500002e+00
         vertex 0.000000e+00 5.000000e+00 4.000001e+00
      endloop
   endfacet
   facet normal 0.000000e+00 3.569160e-02 -9.993629e-01
      outer loop
         vertex 8.000001e+00 1.900000e+01 4.500002e+00
         vertex 1.040000e+02 1.900000e+01 4.500002e+00
         vertex 1.080000e+02 5.000000e+00 4.000001e+00
      endloop
   endfacet
   facet normal -4.296781e-07 3.569148e-02 -9.993629e-01
      outer loop
         vertex 1.040000e+02 1.900000e+01 4.500002e+00
         vertex 1.080000e+02 3.600000e+01 5.107142e+00
         vertex 1.080000e+02 5.000000e+00 4.000001e+00
      endloop
   endfacet
   facet normal -1.000000e+00 0.000000e+00 -0.000000e+00
      outer loop
         vertex 1.080000e+02 3.600000e+01 5.107142e+00
         vertex 1.080000e+02 4.050000e+01 0.000000e+00
         vertex 1.080000e+02 5.000000e+00 4.000001e+00
      endloop
   endfacet
   facet normal 0.000000e+00 3.569160e-02 9.993629e-01
      outer loop
         vertex 1.040000e+02 1.900000e+01 1.815000e+02
         vertex 8.000001e+00 1.900000e+01 1.815000e+02
         vertex 0.000000e+00 5.000000e+00 1.820000e+02
      endloop
   endfacet
   facet normal 0.000000e+00 3.569160e-02 9.993629e-01
      outer loop
         vertex 1.080000e+02 5.000000e+00 1.820000e+02
         vertex 1.040000e+02 1.900000e+01 1.815000e+02
         vertex 0.000000e+00 5.000000e+00 1.820000e+02
      endloop
   endfacet
   facet normal -4.296781e-07 3.569148e-02 9.993629e-01
      outer loop
         vertex 1.080000e+02 3.600000e+01 1.808929e+02
         vertex 1.040000e+02 1.900000e+01 1.815000e+02
         vertex 1.080000e+02 5.000000e+00 1.820000e+02
      endloop
   endfacet
   facet normal 0.000000e+00 9.961947e-01 -8.715547e-02
      outer loop
         vertex 1.050000e+02 7.530385e+00 9.334730e+01
         vertex 1.110000e+02 7.530385e+00 9.334730e+01
         vertex 1.050000e+02 7.500000e+00 9.300000e+01
      endloop
   endfacet
   facet normal 0.000000e+00 9.961947e-01 -8.715547e-02
      outer loop
         vertex 1.110000e+02 7.530385e+00 9.334730e+01
         vertex 1.110000e+02 7.500000e+00 9.300000e+01
         vertex 1.050000e+02 7.500000e+00 9.300000e+01
      endloop
   endfacet
   facet normal 0.000000e+00 9.961947e-01 8.715547e-02
      outer loop
         vertex 1.110000e+02 7.500000e+00 9.300000e+01
         vertex 1.050000e+02 7.530385e+00 9.265271e+01
         vertex 1.050000e+02 7.500000e+00 9.300000e+01
      endloop
   endfacet
   facet normal 1.000000e+00 0.000000e+00 0.000000e+00
      outer loop
         vertex 1.050000e+02 9.500000e+00 9.300000e+01
         vertex 1.050000e+02 7.530385e+00 9.334730e+01
         vertex 1.050000e+02 7.500000e+00 9.300000e+01
      endloop
   endfacet
   facet normal 1.000000e+00 0.000000e+00 -0.000000e+00
      outer loop
         vertex 1.050000e+02 7.530385e+00 9.265271e+01
         vertex 1.050000e+02 9.500000e+00 9.300000e+01
         vertex 1.050000e+02 7.500000e+00 9.300000e+01
      endloop
   endfacet
   facet normal 0.000000e+00 9.961947e-01 8.715547e-02
      outer loop
         vertex 1.110000e+02 7.530385e+00 9.265271e+01
         vertex 1.050000e+02 7.530385e+00 9.265271e+01
         vertex 1.110000e+02 7.500000e+00 9.300000e+01
      endloop
   endfacet
   facet normal 0.000000e+00 9.659258e-01 2.588190e-01
      outer loop
         vertex 1.110000e+02 7.530385e+00 9.265271e+01
         vertex 1.050000e+02 7.620615e+00 9.231596e+01
         vertex 1.050000e+02 7.530385e+00 9.265271e+01
      endloop
   endfacet
   facet normal 1.000000e+00 0.000000e+00 -0.000000e+00
      outer loop
         vertex 1.050000e+02 7.620615e+00 9.231596e+01
         vertex 1.050000e+02 9.500000e+00 9.300000e+01
         vertex 1.050000e+02 7.530385e+00 9.265271e+01
      endloop
   endfacet
   facet normal 0.000000e+00 9.659258e-01 2.588190e-01
      outer loop
         vertex 1.110000e+02 7.620615e+00 9.231596e+01
         vertex 1.050000e+02 7.620615e+00 9.231596e+01
         vertex 1.110000e+02 7.530385e+00 9.265271e+01
      endloop
   endfacet
   facet normal 0.000000e+00 9.659258e-01 -2.588190e-01
      outer loop
         vertex 1.050000e+02 7.620615e+00 9.368404e+01
         vertex 1.110000e+02 7.620615e+00 9.368404e+01
         vertex 1.050000e+02 7.530385e+00 9.334730e+01
      endloop
   endfacet
   facet normal 0.000000e+00 9.659258e-01 -2.588190e-01
      outer loop
         vertex 1.110000e+02 7.620615e+00 9.368404e+01
         vertex 1.110000e+02 7.530385e+00 9.334730e+01
         vertex 1.050000e+02 7.530385e+00 9.334730e+01
      endloop
   endfacet
   facet normal 1.000000e+00 0.000000e+00 0.000000e+00
      outer loop
         vertex 1.050000e+02 9.500000e+00 9.300000e+01
         vertex 1.050000e+02 7.620615e+00 9.368404e+01
         vertex 1.050000e+02 7.530385e+00 9.334730e+01
      endloop
   endfacet
   facet normal 0.000000e+00 9.063077e-01 4.226185e-01
      outer loop
         vertex 1.110000e+02 7.620615e+00 9.231596e+01
         vertex 1.050000e+02 7.767949e+00 9.200000e+01
         vertex 1.050000e+02 7.620615e+00 9.231596e+01
      endloop
   endfacet
   facet normal 1.000000e+00 0.000000e+00 -0.000000e+00
      outer loop
         vertex 1.050000e+02 7.767949e+00 9.200000e+01
         vertex 1.050000e+02 9.500000e+00 9.300000e+01
         vertex 1.050000e+02 7.620615e+00 9.231596e+01
      endloop
   endfacet
   facet normal 0.000000e+00 9.063077e-01 4.226185e-01
      outer loop
         vertex 1.110000e+02 7.767949e+00 9.200000e+01
         vertex 1.050000e+02 7.767949e+00 9.200000e+01
         vertex 1.110000e+02 7.620615e+00 9.231596e+01
      endloop
   endfacet
   facet normal 0.000000e+00 9.063077e-01 -4.226185e-01
      outer loop
         vertex 1.050000e+02 7.767949e+00 9.400000e+01
         vertex 1.110000e+02 7.767949e+00 9.400000e+01
         vertex 1.050000e+02 7.620615e+00 9.368404e+01
      endloop
   endfacet
   facet normal 0.000000e+00 9.063077e-01 -4.226185e-01
      outer loop
         vertex 1.110000e+02 7.767949e+00 9.400000e+01
         vertex 1.110000e+02 7.620615e+00 9.368404e+01
         vertex 1.050000e+02 7.620615e+00 9.368404e+01
      endloop
   endfacet
   facet normal 1.000000e+00 0.000000e+00 0.000000e+00
      outer loop
         vertex 1.050000e+02 9.500000e+00 9.300000e+01
         vertex 1.050000e+02 7.767949e+00 9.400000e+01
         vertex 1.050000e+02 7.620615e+00 9.368404e+01
      endloop
   endfacet
   facet normal 0.000000e+00 8.191523e-01 5.735761e-01
      outer loop
         vertex 1.110000e+02 7.767949e+00 9.200000e+01
         vertex 1.050000e+02 7.967911e+00 9.171443e+01
         vertex 1.050000e+02 7.767949e+00 9.200000e+01
      endloop
   endfacet
   facet normal 1.000000e+00 0.000000e+00 -0.000000e+00
      outer loop
         vertex 1.050000e+02 7.967911e+00 9.171443e+01
         vertex 1.050000e+02 9.500000e+00 9.300000e+01
         vertex 1.050000e+02 7.767949e+00 9.200000e+01
      endloop
   endfacet
   facet normal 0.000000e+00 8.191523e-01 5.735761e-01
      outer loop
         vertex 1.110000e+02 7.967911e+00 9.171443e+01
         vertex 1.050000e+02 7.967911e+00 9.171443e+01
         vertex 1.110000e+02 7.767949e+00 9.200000e+01
      endloop
   endfacet
   facet normal 0.000000e+00 8.191523e-01 -5.735761e-01
      outer loop
         vertex 1.050000e+02 7.967911e+00 9.428558e+01
         vertex 1.110000e+02 7.967911e+00 9.428558e+01
         vertex 1.050000e+02 7.767949e+00 9.400000e+01
      endloop
   endfacet
   facet normal 0.000000e+00 8.191523e-01 -5.735761e-01
      outer loop
         vertex 1.110000e+02 7.967911e+00 9.428558e+01
         vertex 1.110000e+02 7.767949e+00 9.400000e+01
         vertex 1.050000e+02 7.767949e+00 9.400000e+01
      endloop
   endfacet
   facet normal 1.000000e+00 0.000000e+00 0.000000e+00
      outer loop
         vertex 1.050000e+02 9.500000e+00 9.300000e+01
         vertex 1.050000e+02 7.967911e+00 9.428558e+01
         vertex 1.050000e+02 7.767949e+00 9.400000e+01
      endloop
   endfacet
   facet normal 1.000000e+00 0.000000e+00 -0.000000e+00
      outer loop
         vertex 1.110000e+02 7.967911e+00 9.428558e+01
         vertex 1.110000e+02 4.050000e+01 1.860000e+02
         vertex 1.110000e+02 7.767949e+00 9.400000e+01
      endloop
   endfacet
   facet normal 0.000000e+00 7.071068e-01 7.071068e-01
      outer loop
         vertex 1.110000e+02 7.967911e+00 9.171443e+01
         vertex 1.050000e+02 8.214425e+00 9.146791e+01
         vertex 1.050000e+02 7.967911e+00 9.171443e+01
      endloop
   endfacet
   facet normal 1.000000e+00 0.000000e+00 -0.000000e+00
      outer loop
         vertex 1.050000e+02 8.214425e+00 9.146791e+01
         vertex 1.050000e+02 9.500000e+00 9.300000e+01
         vertex 1.050000e+02 7.967911e+00 9.171443e+01
      endloop
   endfacet
   facet normal 0.000000e+00 7.071068e-01 7.071068e-01
      outer loop
         vertex 1.110000e+02 8.214425e+00 9.146791e+01
         vertex 1.050000e+02 8.214425e+00 9.146791e+01
         vertex 1.110000e+02 7.967911e+00 9.171443e+01
      endloop
   endfacet
   facet normal 0.000000e+00 7.071068e-01 -7.071068e-01
      outer loop
         vertex 1.050000e+02 8.214425e+00 9.453209e+01
         vertex 1.110000e+02 8.214425e+00 9.453209e+01
         vertex 1.050000e+02 7.967911e+00 9.428558e+01
      endloop
   endfacet
   facet normal 0.000000e+00 7.071068e-01 -7.071068e-01
      outer loop
         vertex 1.110000e+02 8.214425e+00 9.453209e+01
         vertex 1.110000e+02 7.967911e+00 9.428558e+01
         vertex 1.050000e+02 7.967911e+00 9.428558e+01
      endloop
   endfacet
   facet normal 1.000000e+00 0.000000e+00 0.000000e+00
      outer loop
         vertex 1.050000e+02 9.500000e+00 9.300000e+01
         vertex 1.050000e+02 8.214425e+00 9.453209e+01
         vertex 1.050000e+02 7.967911e+00 9.428558e+01
      endloop
   endfacet
   facet normal 1.000000e+00 0.000000e+00 -0.000000e+00
      outer loop
         vertex 1.110000e+02 8.214425e+00 9.453209e+01
         vertex 1.110000e+02 4.050000e+01 1.860000e+02
         vertex 1.110000e+02 7.967911e+00 9.428558e+01
      endloop
   endfacet
   facet normal 0.000000e+00 5.735765e-01 8.191520e-01
      outer loop
         vertex 1.110000e+02 8.214425e+00 9.146791e+01
         vertex 1.050000e+02 8.500000e+00 9.126795e+01
         vertex 1.050000e+02 8.214425e+00 9.146791e+01
      endloop
   endfacet
   facet normal 1.000000e+00 0.000000e+00 -0.000000e+00
      outer loop
         vertex 1.050000e+02 8.500000e+00 9.126795e+01
         vertex 1.050000e+02 9.500000e+00 9.300000e+01
         vertex 1.050000e+02 8.214425e+00 9.146791e+01
      endloop
   endfacet
   facet normal 0.000000e+00 5.735765e-01 8.191520e-01
      outer loop
         vertex 1.110000e+02 8.500000e+00 9.126795e+01
         vertex 1.050000e+02 8.500000e+00 9.126795e+01
         vertex 1.110000e+02 8.214425e+00 9.146791e+01
      endloop
   endfacet
   facet normal 0.000000e+00 5.735765e-01 -8.191520e-01
      outer loop
         vertex 1.050000e+02 8.500000e+00 9.473205e+01
         vertex 1.110000e+02 8.500000e+00 9.473205e+01
         vertex 1.050000e+02 8.214425e+00 9.453209e+01
      endloop
   endfacet
   facet normal 0.000000e+00 5.735765e-01 -8.191520e-01
      outer loop
         vertex 1.110000e+02 8.500000e+00 9.473205e+01
         vertex 1.110000e+02 8.214425e+00 9.453209e+01
         vertex 1.050000e+02 8.214425e+00 9.453209e+01
      endloop
   endfacet
   facet normal 1.000000e+00 0.000000e+00 0.000000e+00
      outer loop
         vertex 1.050000e+02 9.500000e+00 9.300000e+01
         vertex 1.050000e+02 8.500000e+00 9.473205e+01
         vertex 1.050000e+02 8.214425e+00 9.453209e+01
      endloop
   endfacet
   facet normal 1.000000e+00 0.000000e+00 -0.000000e+00
      outer loop
         vertex 1.110000e+02 8.500000e+00 9.473205e+01
         vertex 1.110000e+02 4.050000e+01 1.860000e+02
         vertex 1.110000e+02 8.214425e+00 9.453209e+01
      endloop
   endfacet
   facet normal 0.000000e+00 4.226179e-01 9.063080e-01
      outer loop
         vertex 1.110000e+02 8.500000e+00 9.126795e+01
         vertex 1.050000e+02 8.815960e+00 9.112062e+01
         vertex 1.050000e+02 8.500000e+00 9.126795e+01
      endloop
   endfacet
   facet normal 1.000000e+00 0.000000e+00 -0.000000e+00
      outer loop
         vertex 1.050000e+02 8.815960e+00 9.112062e+01
         vertex 1.050000e+02 9.500000e+00 9.300000e+01
         vertex 1.050000e+02 8.500000e+00 9.126795e+01
      endloop
   endfacet
   facet normal 0.000000e+00 4.226179e-01 9.063080e-01
      outer loop
         vertex 1.110000e+02 8.815960e+00 9.112062e+01
         vertex 1.050000e+02 8.815960e+00 9.112062e+01
         vertex 1.110000e+02 8.500000e+00 9.126795e+01
      endloop
   endfacet
   facet normal 0.000000e+00 4.226179e-01 -9.063080e-01
      outer loop
         vertex 1.050000e+02 8.815960e+00 9.487939e+01
         vertex 1.110000e+02 8.815960e+00 9.487939e+01
         vertex 1.050000e+02 8.500000e+00 9.473205e+01
      endloop
   endfacet
   facet normal 0.000000e+00 4.226179e-01 -9.063080e-01
      outer loop
         vertex 1.110000e+02 8.815960e+00 9.487939e+01
         vertex 1.110000e+02 8.500000e+00 9.473205e+01
         vertex 1.050000e+02 8.500000e+00 9.473205e+01
      endloop
   endfacet
   facet normal 1.000000e+00 0.000000e+00 0.000000e+00
      outer loop
         vertex 1.050000e+02 9.500000e+00 9.300000e+01
         vertex 1.050000e+02 8.815960e+00 9.487939e+01
         vertex 1.050000e+02 8.500000e+00 9.473205e+01
      endloop
   endfacet
   facet normal 1.000000e+00 0.000000e+00 -0.000000e+00
      outer loop
         vertex 1.110000e+02 8.815960e+00 9.487939e+01
         vertex 1.110000e+02 4.050000e+01 1.860000e+02
         vertex 1.110000e+02 8.500000e+00 9.473205e+01
      endloop
   endfacet
   facet normal 0.000000e+00 2.588191e-01 9.659258e-01
      outer loop
         vertex 1.110000e+02 8.815960e+00 9.112062e+01
         vertex 1.050000e+02 9.152704e+00 9.103039e+01
         vertex 1.050000e+02 8.815960e+00 9.112062e+01
      endloop
   endfacet
   facet normal 1.000000e+00 0.000000e+00 -0.000000e+00
      outer loop
         vertex 1.050000e+02 9.152704e+00 9.103039e+01
         vertex 1.050000e+02 9.500000e+00 9.300000e+01
         vertex 1.050000e+02 8.815960e+00 9.112062e+01
      endloop
   endfacet
   facet normal 0.000000e+00 2.588191e-01 9.659258e-01
      outer loop
         vertex 1.110000e+02 9.152704e+00 9.103039e+01
         vertex 1.050000e+02 9.152704e+00 9.103039e+01
         vertex 1.110000e+02 8.815960e+00 9.112062e+01
      endloop
   endfacet
   facet normal 0.000000e+00 2.588191e-01 -9.659258e-01
      outer loop
         vertex 1.050000e+02 9.152704e+00 9.496962e+01
         vertex 1.110000e+02 9.152704e+00 9.496962e+01
         vertex 1.050000e+02 8.815960e+00 9.487939e+01
      endloop
   endfacet
   facet normal 0.000000e+00 2.588191e-01 -9.659258e-01
      outer loop
         vertex 1.110000e+02 9.152704e+00 9.496962e+01
         vertex 1.110000e+02 8.815960e+00 9.487939e+01
         vertex 1.050000e+02 8.815960e+00 9.487939e+01
      endloop
   endfacet
   facet normal 1.000000e+00 0.000000e+00 0.000000e+00
      outer loop
         vertex 1.050000e+02 9.500000e+00 9.300000e+01
         vertex 1.050000e+02 9.152704e+00 9.496962e+01
         vertex 1.050000e+02 8.815960e+00 9.487939e+01
      endloop
   endfacet
   facet normal 1.000000e+00 0.000000e+00 -0.000000e+00
      outer loop
         vertex 1.110000e+02 9.152704e+00 9.496962e+01
         vertex 1.110000e+02 4.050000e+01 1.860000e+02
         vertex 1.110000e+02 8.815960e+00 9.487939e+01
      endloop
   endfacet
   facet normal 0.000000e+00 8.715616e-02 9.961947e-01
      outer loop
         vertex 1.110000e+02 9.152704e+00 9.103039e+01
         vertex 1.050000e+02 9.500000e+00 9.100000e+01
         vertex 1.050000e+02 9.152704e+00 9.103039e+01
      endloop
   endfacet
   facet normal 1.000000e+00 0.000000e+00 -0.000000e+00
      outer loop
         vertex 1.050000e+02 9.500000e+00 9.100000e+01
         vertex 1.050000e+02 9.500000e+00 9.300000e+01
         vertex 1.050000e+02 9.152704e+00 9.103039e+01
      endloop
   endfacet
   facet normal 0.000000e+00 8.715616e-02 9.961947e-01
      outer loop
         vertex 1.110000e+02 9.500000e+00 9.100000e+01
         vertex 1.050000e+02 9.500000e+00 9.100000e+01
         vertex 1.110000e+02 9.152704e+00 9.103039e+01
      endloop
   endfacet
   facet normal 0.000000e+00 8.715616e-02 -9.961947e-01
      outer loop
         vertex 1.050000e+02 9.500000e+00 9.500000e+01
         vertex 1.110000e+02 9.500000e+00 9.500000e+01
         vertex 1.050000e+02 9.152704e+00 9.496962e+01
      endloop
   endfacet
   facet normal 0.000000e+00 8.715616e-02 -9.961947e-01
      outer loop
         vertex 1.110000e+02 9.500000e+00 9.500000e+01
         vertex 1.110000e+02 9.152704e+00 9.496962e+01
         vertex 1.050000e+02 9.152704e+00 9.496962e+01
      endloop
   endfacet
   facet normal 1.000000e+00 0.000000e+00 -0.000000e+00
      outer loop
         vertex 1.050000e+02 9.500000e+00 9.300000e+01
         vertex 1.050000e+02 9.500000e+00 9.500000e+01
         vertex 1.050000e+02 9.152704e+00 9.496962e+01
      endloop
   endfacet
   facet normal 1.000000e+00 0.000000e+00 -0.000000e+00
      outer loop
         vertex 1.110000e+02 9.500000e+00 9.500000e+01
         vertex 1.110000e+02 4.050000e+01 1.860000e+02
         vertex 1.110000e+02 9.152704e+00 9.496962e+01
      endloop
   endfacet
   facet normal 0.000000e+00 -8.715616e-02 9.961947e-01
      outer loop
         vertex 1.110000e+02 9.500000e+00 9.100000e+01
         vertex 1.050000e+02 9.847296e+00 9.103039e+01
         vertex 1.050000e+02 9.500000e+00 9.100000e+01
      endloop
   endfacet
   facet normal 1.000000e+00 0.000000e+00 0.000000e+00
      outer loop
         vertex 1.050000e+02 9.847296e+00 9.103039e+01
         vertex 1.050000e+02 9.500000e+00 9.300000e+01
         vertex 1.050000e+02 9.500000e+00 9.100000e+01
      endloop
   endfacet
   facet normal 0.000000e+00 -8.715616e-02 9.961947e-01
      outer loop
         vertex 1.110000e+02 9.847296e+00 9.103039e+01
         vertex 1.050000e+02 9.847296e+00 9.103039e+01
         vertex 1.110000e+02 9.500000e+00 9.100000e+01
      endloop
   endfacet
   facet normal 1.000000e+00 0.000000e+00 0.000000e+00
      outer loop
         vertex 1.050000e+02 1.018404e+01 9.487939e+01
         vertex 1.050000e+02 9.847296e+00 9.496962e+01
         vertex 1.050000e+02 9.500000e+00 9.300000e+01
      endloop
   endfacet
   facet normal 1.000000e+00 0.000000e+00 0.000000e+00
      outer loop
         vertex 1.050000e+02 9.847296e+00 9.496962e+01
         vertex 1.050000e+02 9.500000e+00 9.500000e+01
         vertex 1.050000e+02 9.500000e+00 9.300000e+01
      endloop
   endfacet
   facet normal 1.000000e+00 0.000000e+00 0.000000e+00
      outer loop
         vertex 1.050000e+02 1.103209e+01 9.428558e+01
         vertex 1.050000e+02 1.078558e+01 9.453209e+01
         vertex 1.050000e+02 9.500000e+00 9.300000e+01
      endloop
   endfacet
   facet normal 1.000000e+00 0.000000e+00 0.000000e+00
      outer loop
         vertex 1.050000e+02 1.078558e+01 9.453209e+01
         vertex 1.050000e+02 1.050000e+01 9.473205e+01
         vertex 1.050000e+02 9.500000e+00 9.300000e+01
      endloop
   endfacet
   facet normal 1.000000e+00 0.000000e+00 0.000000e+00
      outer loop
         vertex 1.050000e+02 1.050000e+01 9.473205e+01
         vertex 1.050000e+02 1.018404e+01 9.487939e+01
         vertex 1.050000e+02 9.500000e+00 9.300000e+01
      endloop
   endfacet
   facet normal 1.000000e+00 0.000000e+00 0.000000e+00
      outer loop
         vertex 1.050000e+02 1.146962e+01 9.334730e+01
         vertex 1.050000e+02 1.137939e+01 9.368404e+01
         vertex 1.050000e+02 9.500000e+00 9.300000e+01
      endloop
   endfacet
   facet normal 1.000000e+00 0.000000e+00 0.000000e+00
      outer loop
         vertex 1.050000e+02 1.137939e+01 9.368404e+01
         vertex 1.050000e+02 1.123205e+01 9.400000e+01
         vertex 1.050000e+02 9.500000e+00 9.300000e+01
      endloop
   endfacet
   facet normal 1.000000e+00 0.000000e+00 0.000000e+00
      outer loop
         vertex 1.050000e+02 1.123205e+01 9.400000e+01
         vertex 1.050000e+02 1.103209e+01 9.428558e+01
         vertex 1.050000e+02 9.500000e+00 9.300000e+01
      endloop
   endfacet
   facet normal 1.000000e+00 0.000000e+00 -0.000000e+00
      outer loop
         vertex 1.050000e+02 1.137939e+01 9.231596e+01
         vertex 1.050000e+02 1.146962e+01 9.265271e+01
         vertex 1.050000e+02 9.500000e+00 9.300000e+01
      endloop
   endfacet
   facet normal 1.000000e+00 0.000000e+00 -0.000000e+00
      outer loop
         vertex 1.050000e+02 1.146962e+01 9.265271e+01
         vertex 1.050000e+02 1.150000e+01 9.300000e+01
         vertex 1.050000e+02 9.500000e+00 9.300000e+01
      endloop
   endfacet
   facet normal 1.000000e+00 0.000000e+00 0.000000e+00
      outer loop
         vertex 1.050000e+02 1.150000e+01 9.300000e+01
         vertex 1.050000e+02 1.146962e+01 9.334730e+01
         vertex 1.050000e+02 9.500000e+00 9.300000e+01
      endloop
   endfacet
   facet normal 1.000000e+00 0.000000e+00 -0.000000e+00
      outer loop
         vertex 1.050000e+02 1.078558e+01 9.146791e+01
         vertex 1.050000e+02 1.103209e+01 9.171443e+01
         vertex 1.050000e+02 9.500000e+00 9.300000e+01
      endloop
   endfacet
   facet normal 1.000000e+00 0.000000e+00 -0.000000e+00
      outer loop
         vertex 1.050000e+02 1.103209e+01 9.171443e+01
         vertex 1.050000e+02 1.123205e+01 9.200000e+01
         vertex 1.050000e+02 9.500000e+00 9.300000e+01
      endloop
   endfacet
   facet normal 1.000000e+00 0.000000e+00 -0.000000e+00
      outer loop
         vertex 1.050000e+02 1.123205e+01 9.200000e+01
         vertex 1.050000e+02 1.137939e+01 9.231596e+01
         vertex 1.050000e+02 9.500000e+00 9.300000e+01
      endloop
   endfacet
   facet normal 1.000000e+00 0.000000e+00 -0.000000e+00
      outer loop
         vertex 1.050000e+02 9.847296e+00 9.103039e+01
         vertex 1.050000e+02 1.018404e+01 9.112062e+01
         vertex 1.050000e+02 9.500000e+00 9.300000e+01
      endloop
   endfacet
   facet normal 1.000000e+00 0.000000e+00 -0.000000e+00
      outer loop
         vertex 1.050000e+02 1.018404e+01 9.112062e+01
         vertex 1.050000e+02 1.050000e+01 9.126795e+01
         vertex 1.050000e+02 9.500000e+00 9.300000e+01
      endloop
   endfacet
   facet normal 1.000000e+00 0.000000e+00 -0.000000e+00
      outer loop
         vertex 1.050000e+02 1.050000e+01 9.126795e+01
         vertex 1.050000e+02 1.078558e+01 9.146791e+01
         vertex 1.050000e+02 9.500000e+00 9.300000e+01
      endloop
   endfacet
   facet normal 0.000000e+00 -8.715616e-02 -9.961947e-01
      outer loop
         vertex 1.050000e+02 9.847296e+00 9.496962e+01
         vertex 1.110000e+02 9.847296e+00 9.496962e+01
         vertex 1.050000e+02 9.500000e+00 9.500000e+01
      endloop
   endfacet
   facet normal 0.000000e+00 -8.715616e-02 -9.961947e-01
      outer loop
         vertex 1.110000e+02 9.847296e+00 9.496962e+01
         vertex 1.110000e+02 9.500000e+00 9.500000e+01
         vertex 1.050000e+02 9.500000e+00 9.500000e+01
      endloop
   endfacet
   facet normal 1.000000e+00 0.000000e+00 -0.000000e+00
      outer loop
         vertex 1.110000e+02 9.847296e+00 9.496962e+01
         vertex 1.110000e+02 4.050000e+01 1.860000e+02
         vertex 1.110000e+02 9.500000e+00 9.500000e+01
      endloop
   endfacet
   facet normal 0.000000e+00 -2.588191e-01 9.659258e-01
      outer loop
         vertex 1.110000e+02 9.847296e+00 9.103039e+01
         vertex 1.050000e+02 1.018404e+01 9.112062e+01
         vertex 1.050000e+02 9.847296e+00 9.103039e+01
      endloop
   endfacet
   facet normal 1.000000e+00 0.000000e+00 0.000000e+00
      outer loop
         vertex 1.110000e+02 4.050000e+01 0.000000e+00
         vertex 1.110000e+02 1.018404e+01 9.112062e+01
         vertex 1.110000e+02 9.847296e+00 9.103039e+01
      endloop
   endfacet
   facet normal 0.000000e+00 -2.588191e-01 9.659258e-01
      outer loop
         vertex 1.110000e+02 1.018404e+01 9.112062e+01
         vertex 1.050000e+02 1.018404e+01 9.112062e+01
         vertex 1.110000e+02 9.847296e+00 9.103039e+01
      endloop
   endfacet
   facet normal 0.000000e+00 -2.588191e-01 -9.659258e-01
      outer loop
         vertex 1.050000e+02 1.018404e+01 9.487939e+01
         vertex 1.110000e+02 1.018404e+01 9.487939e+01
         vertex 1.050000e+02 9.847296e+00 9.496962e+01
      endloop
   endfacet
   facet normal 0.000000e+00 -2.588191e-01 -9.659258e-01
      outer loop
         vertex 1.110000e+02 1.018404e+01 9.487939e+01
         vertex 1.110000e+02 9.847296e+00 9.496962e+01
         vertex 1.050000e+02 9.847296e+00 9.496962e+01
      endloop
   endfacet
   facet normal 1.000000e+00 0.000000e+00 -0.000000e+00
      outer loop
         vertex 1.110000e+02 1.018404e+01 9.487939e+01
         vertex 1.110000e+02 4.050000e+01 1.860000e+02
         vertex 1.110000e+02 9.847296e+00 9.496962e+01
      endloop
   endfacet
   facet normal 0.000000e+00 -4.226179e-01 9.063080e-01
      outer loop
         vertex 1.110000e+02 1.018404e+01 9.112062e+01
         vertex 1.050000e+02 1.050000e+01 9.126795e+01
         vertex 1.050000e+02 1.018404e+01 9.112062e+01
      endloop
   endfacet
   facet normal 1.000000e+00 0.000000e+00 0.000000e+00
      outer loop
         vertex 1.110000e+02 4.050000e+01 0.000000e+00
         vertex 1.110000e+02 1.050000e+01 9.126795e+01
         vertex 1.110000e+02 1.018404e+01 9.112062e+01
      endloop
   endfacet
   facet normal 0.000000e+00 -4.226179e-01 9.063080e-01
      outer loop
         vertex 1.110000e+02 1.050000e+01 9.126795e+01
         vertex 1.050000e+02 1.050000e+01 9.126795e+01
         vertex 1.110000e+02 1.018404e+01 9.112062e+01
      endloop
   endfacet
   facet normal 0.000000e+00 -4.226179e-01 -9.063080e-01
      outer loop
         vertex 1.050000e+02 1.050000e+01 9.473205e+01
         vertex 1.110000e+02 1.050000e+01 9.473205e+01
         vertex 1.050000e+02 1.018404e+01 9.487939e+01
      endloop
   endfacet
   facet normal 0.000000e+00 -4.226179e-01 -9.063080e-01
      outer loop
         vertex 1.110000e+02 1.050000e+01 9.473205e+01
         vertex 1.110000e+02 1.018404e+01 9.487939e+01
         vertex 1.050000e+02 1.018404e+01 9.487939e+01
      endloop
   endfacet
   facet normal 1.000000e+00 0.000000e+00 -0.000000e+00
      outer loop
         vertex 1.110000e+02 1.050000e+01 9.473205e+01
         vertex 1.110000e+02 4.050000e+01 1.860000e+02
         vertex 1.110000e+02 1.018404e+01 9.487939e+01
      endloop
   endfacet
   facet normal 0.000000e+00 -5.735765e-01 8.191520e-01
      outer loop
         vertex 1.110000e+02 1.050000e+01 9.126795e+01
         vertex 1.050000e+02 1.078558e+01 9.146791e+01
         vertex 1.050000e+02 1.050000e+01 9.126795e+01
      endloop
   endfacet
   facet normal 1.000000e+00 0.000000e+00 0.000000e+00
      outer loop
         vertex 1.110000e+02 4.050000e+01 0.000000e+00
         vertex 1.110000e+02 1.078558e+01 9.146791e+01
         vertex 1.110000e+02 1.050000e+01 9.126795e+01
      endloop
   endfacet
   facet normal 0.000000e+00 -5.735765e-01 8.191520e-01
      outer loop
         vertex 1.110000e+02 1.078558e+01 9.146791e+01
         vertex 1.050000e+02 1.078558e+01 9.146791e+01
         vertex 1.110000e+02 1.050000e+01 9.126795e+01
      endloop
   endfacet
   facet normal 0.000000e+00 -5.735765e-01 -8.191520e-01
      outer loop
         vertex 1.050000e+02 1.078558e+01 9.453209e+01
         vertex 1.110000e+02 1.078558e+01 9.453209e+01
         vertex 1.050000e+02 1.050000e+01 9.473205e+01
      endloop
   endfacet
   facet normal 0.000000e+00 -5.735765e-01 -8.191520e-01
      outer loop
         vertex 1.110000e+02 1.078558e+01 9.453209e+01
         vertex 1.110000e+02 1.050000e+01 9.473205e+01
         vertex 1.050000e+02 1.050000e+01 9.473205e+01
      endloop
   endfacet
   facet normal 1.000000e+00 0.000000e+00 -0.000000e+00
      outer loop
         vertex 1.110000e+02 1.078558e+01 9.453209e+01
         vertex 1.110000e+02 4.050000e+01 1.860000e+02
         vertex 1.110000e+02 1.050000e+01 9.473205e+01
      endloop
   endfacet
   facet normal 0.000000e+00 -7.071068e-01 7.071068e-01
      outer loop
         vertex 1.110000e+02 1.078558e+01 9.146791e+01
         vertex 1.050000e+02 1.103209e+01 9.171443e+01
         vertex 1.050000e+02 1.078558e+01 9.146791e+01
      endloop
   endfacet
   facet normal 1.000000e+00 0.000000e+00 0.000000e+00
      outer loop
         vertex 1.110000e+02 4.050000e+01 0.000000e+00
         vertex 1.110000e+02 1.103209e+01 9.171443e+01
         vertex 1.110000e+02 1.078558e+01 9.146791e+01
      endloop
   endfacet
   facet normal 0.000000e+00 -7.071068e-01 7.071068e-01
      outer loop
         vertex 1.110000e+02 1.103209e+01 9.171443e+01
         vertex 1.050000e+02 1.103209e+01 9.171443e+01
         vertex 1.110000e+02 1.078558e+01 9.146791e+01
      endloop
   endfacet
   facet normal 0.000000e+00 -7.071068e-01 -7.071068e-01
      outer loop
         vertex 1.050000e+02 1.103209e+01 9.428558e+01
         vertex 1.110000e+02 1.103209e+01 9.428558e+01
         vertex 1.050000e+02 1.078558e+01 9.453209e+01
      endloop
   endfacet
   facet normal 0.000000e+00 -7.071068e-01 -7.071068e-01
      outer loop
         vertex 1.110000e+02 1.103209e+01 9.428558e+01
         vertex 1.110000e+02 1.078558e+01 9.453209e+01
         vertex 1.050000e+02 1.078558e+01 9.453209e+01
      endloop
   endfacet
   facet normal 1.000000e+00 0.000000e+00 -0.000000e+00
      outer loop
         vertex 1.110000e+02 1.103209e+01 9.428558e+01
         vertex 1.110000e+02 4.050000e+01 1.860000e+02
         vertex 1.110000e+02 1.078558e+01 9.453209e+01
      endloop
   endfacet
   facet normal 0.000000e+00 -8.191520e-01 5.735765e-01
      outer loop
         vertex 1.110000e+02 1.103209e+01 9.171443e+01
         vertex 1.050000e+02 1.123205e+01 9.200000e+01
         vertex 1.050000e+02 1.103209e+01 9.171443e+01
      endloop
   endfacet
   facet normal 1.000000e+00 0.000000e+00 0.000000e+00
      outer loop
         vertex 1.110000e+02 4.050000e+01 0.000000e+00
         vertex 1.110000e+02 1.123205e+01 9.200000e+01
         vertex 1.110000e+02 1.103209e+01 9.171443e+01
      endloop
   endfacet
   facet normal 0.000000e+00 -8.191520e-01 5.735765e-01
      outer loop
         vertex 1.110000e+02 1.123205e+01 9.200000e+01
         vertex 1.050000e+02 1.123205e+01 9.200000e+01
         vertex 1.110000e+02 1.103209e+01 9.171443e+01
      endloop
   endfacet
   facet normal 0.000000e+00 -8.191520e-01 -5.735765e-01
      outer loop
         vertex 1.050000e+02 1.123205e+01 9.400000e+01
         vertex 1.110000e+02 1.123205e+01 9.400000e+01
         vertex 1.050000e+02 1.103209e+01 9.428558e+01
      endloop
   endfacet
   facet normal 0.000000e+00 -8.191520e-01 -5.735765e-01
      outer loop
         vertex 1.110000e+02 1.123205e+01 9.400000e+01
         vertex 1.110000e+02 1.103209e+01 9.428558e+01
         vertex 1.050000e+02 1.103209e+01 9.428558e+01
      endloop
   endfacet
   facet normal 1.000000e+00 0.000000e+00 -0.000000e+00
      outer loop
         vertex 1.110000e+02 1.123205e+01 9.400000e+01
         vertex 1.110000e+02 4.050000e+01 1.860000e+02
         vertex 1.110000e+02 1.103209e+01 9.428558e+01
      endloop
   endfacet
   facet normal 0.000000e+00 -9.063079e-01 4.226179e-01
      outer loop
         vertex 1.110000e+02 1.123205e+01 9.200000e+01
         vertex 1.050000e+02 1.137939e+01 9.231596e+01
         vertex 1.050000e+02 1.123205e+01 9.200000e+01
      endloop
   endfacet
   facet normal 1.000000e+00 0.000000e+00 0.000000e+00
      outer loop
         vertex 1.110000e+02 4.050000e+01 0.000000e+00
         vertex 1.110000e+02 1.137939e+01 9.231596e+01
         vertex 1.110000e+02 1.123205e+01 9.200000e+01
      endloop
   endfacet
   facet normal 0.000000e+00 -9.063079e-01 4.226179e-01
      outer loop
         vertex 1.110000e+02 1.137939e+01 9.231596e+01
         vertex 1.050000e+02 1.137939e+01 9.231596e+01
         vertex 1.110000e+02 1.123205e+01 9.200000e+01
      endloop
   endfacet
   facet normal 0.000000e+00 -9.063079e-01 -4.226179e-01
      outer loop
         vertex 1.050000e+02 1.137939e+01 9.368404e+01
         vertex 1.110000e+02 1.137939e+01 9.368404e+01
         vertex 1.050000e+02 1.123205e+01 9.400000e+01
      endloop
   endfacet
   facet normal 0.000000e+00 -9.063079e-01 -4.226179e-01
      outer loop
         vertex 1.110000e+02 1.137939e+01 9.368404e+01
         vertex 1.110000e+02 1.123205e+01 9.400000e+01
         vertex 1.050000e+02 1.123205e+01 9.400000e+01
      endloop
   endfacet
   facet normal 1.000000e+00 0.000000e+00 -0.000000e+00
      outer loop
         vertex 1.110000e+02 1.137939e+01 9.368404e+01
         vertex 1.110000e+02 4.050000e+01 1.860000e+02
         vertex 1.110000e+02 1.123205e+01 9.400000e+01
      endloop
   endfacet
   facet normal 0.000000e+00 -9.659258e-01 2.588190e-01
      outer loop
         vertex 1.110000e+02 1.137939e+01 9.231596e+01
         vertex 1.050000e+02 1.146962e+01 9.265271e+01
         vertex 1.050000e+02 1.137939e+01 9.231596e+01
      endloop
   endfacet
   facet normal 1.000000e+00 0.000000e+00 0.000000e+00
      outer loop
         vertex 1.110000e+02 4.050000e+01 0.000000e+00
         vertex 1.110000e+02 1.146962e+01 9.265271e+01
         vertex 1.110000e+02 1.137939e+01 9.231596e+01
      endloop
   endfacet
   facet normal 0.000000e+00 -9.659258e-01 2.588190e-01
      outer loop
         vertex 1.110000e+02 1.146962e+01 9.265271e+01
         vertex 1.050000e+02 1.146962e+01 9.265271e+01
         vertex 1.110000e+02 1.137939e+01 9.231596e+01
      endloop
   endfacet
   facet normal 0.000000e+00 -9.659258e-01 -2.588190e-01
      outer loop
         vertex 1.050000e+02 1.146962e+01 9.334730e+01
         vertex 1.110000e+02 1.146962e+01 9.334730e+01
         vertex 1.050000e+02 1.137939e+01 9.368404e+01
      endloop
   endfacet
   facet normal 0.000000e+00 -9.659258e-01 -2.588190e-01
      outer loop
         vertex 1.110000e+02 1.146962e+01 9.334730e+01
         vertex 1.110000e+02 1.137939e+01 9.368404e+01
         vertex 1.050000e+02 1.137939e+01 9.368404e+01
      endloop
   endfacet
   facet normal 1.000000e+00 0.000000e+00 -0.000000e+00
      outer loop
         vertex 1.110000e+02 1.146962e+01 9.334730e+01
         vertex 1.110000e+02 4.050000e+01 1.860000e+02
         vertex 1.110000e+02 1.137939e+01 9.368404e+01
      endloop
   endfacet
   facet normal 0.000000e+00 -9.961947e-01 8.715547e-02
      outer loop
         vertex 1.110000e+02 1.146962e+01 9.265271e+01
         vertex 1.050000e+02 1.150000e+01 9.300000e+01
         vertex 1.050000e+02 1.146962e+01 9.265271e+01
      endloop
   endfacet
   facet normal 1.000000e+00 0.000000e+00 0.000000e+00
      outer loop
         vertex 1.110000e+02 4.050000e+01 0.000000e+00
         vertex 1.110000e+02 1.150000e+01 9.300000e+01
         vertex 1.110000e+02 1.146962e+01 9.265271e+01
      endloop
   endfacet
   facet normal 0.000000e+00 -9.961947e-01 8.715547e-02
      outer loop
         vertex 1.110000e+02 1.150000e+01 9.300000e+01
         vertex 1.050000e+02 1.150000e+01 9.300000e+01
         vertex 1.110000e+02 1.146962e+01 9.265271e+01
      endloop
   endfacet
   facet normal 0.000000e+00 -9.961947e-01 -8.715547e-02
      outer loop
         vertex 1.050000e+02 1.150000e+01 9.300000e+01
         vertex 1.110000e+02 1.150000e+01 9.300000e+01
         vertex 1.050000e+02 1.146962e+01 9.334730e+01
      endloop
   endfacet
   facet normal 0.000000e+00 -9.961947e-01 -8.715547e-02
      outer loop
         vertex 1.110000e+02 1.150000e+01 9.300000e+01
         vertex 1.110000e+02 1.146962e+01 9.334730e+01
         vertex 1.050000e+02 1.146962e+01 9.334730e+01
      endloop
   endfacet
   facet normal 1.000000e+00 0.000000e+00 -0.000000e+00
      outer loop
         vertex 1.110000e+02 4.050000e+01 0.000000e+00
         vertex 1.110000e+02 4.050000e+01 1.860000e+02
         vertex 1.110000e+02 1.146962e+01 9.334730e+01
      endloop
   endfacet
   facet normal 1.000000e+00 -0.000000e+00 -0.000000e+00
      outer loop
         vertex 1.110000e+02 1.150000e+01 9.300000e+01
         vertex 1.110000e+02 4.050000e+01 0.000000e+00
         vertex 1.110000e+02 1.146962e+01 9.334730e+01
      endloop
   endfacet
   facet normal 0.000000e+00 1.000000e+00 0.000000e+00
      outer loop
         vertex 1.658062e+01 1.900000e+01 5.600281e+00
         vertex 1.727936e+01 1.900000e+01 5.413048e+00
         vertex 8.000001e+00 1.900000e+01 4.500002e+00
      endloop
   endfacet
   facet normal 0.000000e+00 1.000000e+00 0.000000e+00
      outer loop
         vertex 1.482092e+01 1.900000e+01 6.832436e+00
         vertex 1.533243e+01 1.900000e+01 6.320916e+00
         vertex 8.000001e+00 1.900000e+01 4.500002e+00
      endloop
   endfacet
   facet normal 0.000000e+00 1.000000e+00 0.000000e+00
      outer loop
         vertex 1.533243e+01 1.900000e+01 6.320916e+00
         vertex 1.592500e+01 1.900000e+01 5.905993e+00
         vertex 8.000001e+00 1.900000e+01 4.500002e+00
      endloop
   endfacet
   facet normal 0.000000e+00 1.000000e+00 0.000000e+00
      outer loop
         vertex 1.592500e+01 1.900000e+01 5.905993e+00
         vertex 1.658062e+01 1.900000e+01 5.600281e+00
         vertex 8.000001e+00 1.900000e+01 4.500002e+00
      endloop
   endfacet
   facet normal 0.000000e+00 1.000000e+00 0.000000e+00
      outer loop
         vertex 1.391305e+01 1.900000e+01 8.779362e+00
         vertex 1.410028e+01 1.900000e+01 8.080617e+00
         vertex 8.000001e+00 1.900000e+01 4.500002e+00
      endloop
   endfacet
   facet normal 0.000000e+00 1.000000e+00 0.000000e+00
      outer loop
         vertex 1.410028e+01 1.900000e+01 8.080617e+00
         vertex 1.440600e+01 1.900000e+01 7.425003e+00
         vertex 8.000001e+00 1.900000e+01 4.500002e+00
      endloop
   endfacet
   facet normal 0.000000e+00 1.000000e+00 0.000000e+00
      outer loop
         vertex 1.440600e+01 1.900000e+01 7.425003e+00
         vertex 1.482092e+01 1.900000e+01 6.832436e+00
         vertex 8.000001e+00 1.900000e+01 4.500002e+00
      endloop
   endfacet
   facet normal 0.000000e+00 1.000000e+00 0.000000e+00
      outer loop
         vertex 1.727936e+01 1.900000e+01 5.413048e+00
         vertex 1.800000e+01 1.900000e+01 5.350001e+00
         vertex 8.000001e+00 1.900000e+01 4.500002e+00
      endloop
   endfacet
   facet normal -0.000000e+00 1.000000e+00 0.000000e+00
      outer loop
         vertex 1.800000e+01 1.900000e+01 5.350001e+00
         vertex 9.000000e+01 1.900000e+01 5.350001e+00
         vertex 8.000001e+00 1.900000e+01 4.500002e+00
      endloop
   endfacet
   facet normal 0.000000e+00 1.000000e+00 0.000000e+00
      outer loop
         vertex 9.000000e+01 1.900000e+01 5.350001e+00
         vertex 1.040000e+02 1.900000e+01 4.500002e+00
         vertex 8.000001e+00 1.900000e+01 4.500002e+00
      endloop
   endfacet
   facet normal 0.000000e+00 1.000000e+00 0.000000e+00
      outer loop
         vertex 8.000001e+00 1.900000e+01 1.815000e+02
         vertex 1.385000e+01 1.900000e+01 1.765000e+02
         vertex 8.000001e+00 1.900000e+01 4.500002e+00
      endloop
   endfacet
   facet normal 0.000000e+00 1.000000e+00 0.000000e+00
      outer loop
         vertex 1.385000e+01 1.900000e+01 1.765000e+02
         vertex 1.385000e+01 1.900000e+01 9.500004e+00
         vertex 8.000001e+00 1.900000e+01 4.500002e+00
      endloop
   endfacet
   facet normal 0.000000e+00 1.000000e+00 0.000000e+00
      outer loop
         vertex 1.385000e+01 1.900000e+01 9.500004e+00
         vertex 1.391305e+01 1.900000e+01 8.779362e+00
         vertex 8.000001e+00 1.900000e+01 4.500002e+00
      endloop
   endfacet
   facet normal -0.000000e+00 1.000000e+00 0.000000e+00
      outer loop
         vertex 9.000000e+01 1.900000e+01 5.350001e+00
         vertex 9.072064e+01 1.900000e+01 5.413048e+00
         vertex 1.040000e+02 1.900000e+01 4.500002e+00
      endloop
   endfacet
   facet normal -0.000000e+00 1.000000e+00 0.000000e+00
      outer loop
         vertex 9.072064e+01 1.900000e+01 5.413048e+00
         vertex 9.141938e+01 1.900000e+01 5.600281e+00
         vertex 1.040000e+02 1.900000e+01 4.500002e+00
      endloop
   endfacet
   facet normal -0.000000e+00 1.000000e+00 0.000000e+00
      outer loop
         vertex 9.141938e+01 1.900000e+01 5.600281e+00
         vertex 9.207500e+01 1.900000e+01 5.905993e+00
         vertex 1.040000e+02 1.900000e+01 4.500002e+00
      endloop
   endfacet
   facet normal -0.000000e+00 1.000000e+00 0.000000e+00
      outer loop
         vertex 9.207500e+01 1.900000e+01 5.905993e+00
         vertex 9.266757e+01 1.900000e+01 6.320916e+00
         vertex 1.040000e+02 1.900000e+01 4.500002e+00
      endloop
   endfacet
   facet normal -0.000000e+00 1.000000e+00 0.000000e+00
      outer loop
         vertex 9.266757e+01 1.900000e+01 6.320916e+00
         vertex 9.317908e+01 1.900000e+01 6.832436e+00
         vertex 1.040000e+02 1.900000e+01 4.500002e+00
      endloop
   endfacet
   facet normal -0.000000e+00 1.000000e+00 0.000000e+00
      outer loop
         vertex 9.317908e+01 1.900000e+01 6.832436e+00
         vertex 9.359401e+01 1.900000e+01 7.425003e+00
         vertex 1.040000e+02 1.900000e+01 4.500002e+00
      endloop
   endfacet
   facet normal -0.000000e+00 1.000000e+00 0.000000e+00
      outer loop
         vertex 9.359401e+01 1.900000e+01 7.425003e+00
         vertex 9.389973e+01 1.900000e+01 8.080617e+00
         vertex 1.040000e+02 1.900000e+01 4.500002e+00
      endloop
   endfacet
   facet normal -0.000000e+00 1.000000e+00 0.000000e+00
      outer loop
         vertex 9.389973e+01 1.900000e+01 8.080617e+00
         vertex 9.408695e+01 1.900000e+01 8.779362e+00
         vertex 1.040000e+02 1.900000e+01 4.500002e+00
      endloop
   endfacet
   facet normal -0.000000e+00 1.000000e+00 0.000000e+00
      outer loop
         vertex 9.408695e+01 1.900000e+01 8.779362e+00
         vertex 9.415000e+01 1.900000e+01 9.500004e+00
         vertex 1.040000e+02 1.900000e+01 4.500002e+00
      endloop
   endfacet
   facet normal -0.000000e+00 1.000000e+00 0.000000e+00
      outer loop
         vertex 9.415000e+01 1.900000e+01 9.500004e+00
         vertex 1.040000e+02 1.900000e+01 1.815000e+02
         vertex 1.040000e+02 1.900000e+01 4.500002e+00
      endloop
   endfacet
   facet normal -9.734172e-01 2.290393e-01 0.000000e+00
      outer loop
         vertex 1.080000e+02 3.600000e+01 1.808929e+02
         vertex 1.080000e+02 3.600000e+01 5.107142e+00
         vertex 1.040000e+02 1.900000e+01 4.500002e+00
      endloop
   endfacet
   facet normal -9.734172e-01 2.290393e-01 0.000000e+00
      outer loop
         vertex 1.040000e+02 1.900000e+01 1.815000e+02
         vertex 1.080000e+02 3.600000e+01 1.808929e+02
         vertex 1.040000e+02 1.900000e+01 4.500002e+00
      endloop
   endfacet
   facet normal -0.000000e+00 1.000000e+00 0.000000e+00
      outer loop
         vertex 9.415000e+01 1.900000e+01 1.765000e+02
         vertex 1.040000e+02 1.900000e+01 1.815000e+02
         vertex 9.415000e+01 1.900000e+01 9.500004e+00
      endloop
   endfacet
   facet normal 0.000000e+00 1.000000e+00 0.000000e+00
      outer loop
         vertex 8.000001e+00 1.900000e+01 1.815000e+02
         vertex 1.391305e+01 1.900000e+01 1.772206e+02
         vertex 1.385000e+01 1.900000e+01 1.765000e+02
      endloop
   endfacet
   facet normal -0.000000e+00 1.000000e+00 0.000000e+00
      outer loop
         vertex 9.408695e+01 1.900000e+01 1.772206e+02
         vertex 1.040000e+02 1.900000e+01 1.815000e+02
         vertex 9.415000e+01 1.900000e+01 1.765000e+02
      endloop
   endfacet
   facet normal 0.000000e+00 1.000000e+00 0.000000e+00
      outer loop
         vertex 8.000001e+00 1.900000e+01 1.815000e+02
         vertex 1.410028e+01 1.900000e+01 1.779194e+02
         vertex 1.391305e+01 1.900000e+01 1.772206e+02
      endloop
   endfacet
   facet normal -0.000000e+00 1.000000e+00 0.000000e+00
      outer loop
         vertex 9.389973e+01 1.900000e+01 1.779194e+02
         vertex 1.040000e+02 1.900000e+01 1.815000e+02
         vertex 9.408695e+01 1.900000e+01 1.772206e+02
      endloop
   endfacet
   facet normal 0.000000e+00 1.000000e+00 0.000000e+00
      outer loop
         vertex 8.000001e+00 1.900000e+01 1.815000e+02
         vertex 1.440600e+01 1.900000e+01 1.785750e+02
         vertex 1.410028e+01 1.900000e+01 1.779194e+02
      endloop
   endfacet
   facet normal -0.000000e+00 1.000000e+00 0.000000e+00
      outer loop
         vertex 9.359401e+01 1.900000e+01 1.785750e+02
         vertex 1.040000e+02 1.900000e+01 1.815000e+02
         vertex 9.389973e+01 1.900000e+01 1.779194e+02
      endloop
   endfacet
   facet normal 0.000000e+00 1.000000e+00 0.000000e+00
      outer loop
         vertex 8.000001e+00 1.900000e+01 1.815000e+02
         vertex 1.482092e+01 1.900000e+01 1.791676e+02
         vertex 1.440600e+01 1.900000e+01 1.785750e+02
      endloop
   endfacet
   facet normal -0.000000e+00 1.000000e+00 0.000000e+00
      outer loop
         vertex 9.317908e+01 1.900000e+01 1.791676e+02
         vertex 1.040000e+02 1.900000e+01 1.815000e+02
         vertex 9.359401e+01 1.900000e+01 1.785750e+02
      endloop
   endfacet
   facet normal 0.000000e+00 1.000000e+00 0.000000e+00
      outer loop
         vertex 8.000001e+00 1.900000e+01 1.815000e+02
         vertex 1.533243e+01 1.900000e+01 1.796791e+02
         vertex 1.482092e+01 1.900000e+01 1.791676e+02
      endloop
   endfacet
   facet normal -0.000000e+00 1.000000e+00 0.000000e+00
      outer loop
         vertex 9.266757e+01 1.900000e+01 1.796791e+02
         vertex 1.040000e+02 1.900000e+01 1.815000e+02
         vertex 9.317908e+01 1.900000e+01 1.791676e+02
      endloop
   endfacet
   facet normal 0.000000e+00 1.000000e+00 0.000000e+00
      outer loop
         vertex 8.000001e+00 1.900000e+01 1.815000e+02
         vertex 1.592500e+01 1.900000e+01 1.800940e+02
         vertex 1.533243e+01 1.900000e+01 1.796791e+02
      endloop
   endfacet
   facet normal -0.000000e+00 1.000000e+00 0.000000e+00
      outer loop
         vertex 9.207500e+01 1.900000e+01 1.800940e+02
         vertex 1.040000e+02 1.900000e+01 1.815000e+02
         vertex 9.266757e+01 1.900000e+01 1.796791e+02
      endloop
   endfacet
   facet normal 0.000000e+00 1.000000e+00 0.000000e+00
      outer loop
         vertex 8.000001e+00 1.900000e+01 1.815000e+02
         vertex 1.658062e+01 1.900000e+01 1.803997e+02
         vertex 1.592500e+01 1.900000e+01 1.800940e+02
      endloop
   endfacet
   facet normal -0.000000e+00 1.000000e+00 0.000000e+00
      outer loop
         vertex 9.141938e+01 1.900000e+01 1.803997e+02
         vertex 1.040000e+02 1.900000e+01 1.815000e+02
         vertex 9.207500e+01 1.900000e+01 1.800940e+02
      endloop
   endfacet
   facet normal 0.000000e+00 1.000000e+00 0.000000e+00
      outer loop
         vertex 8.000001e+00 1.900000e+01 1.815000e+02
         vertex 1.727936e+01 1.900000e+01 1.805870e+02
         vertex 1.658062e+01 1.900000e+01 1.803997e+02
      endloop
   endfacet
   facet normal -0.000000e+00 1.000000e+00 0.000000e+00
      outer loop
         vertex 9.072064e+01 1.900000e+01 1.805870e+02
         vertex 1.040000e+02 1.900000e+01 1.815000e+02
         vertex 9.141938e+01 1.900000e+01 1.803997e+02
      endloop
   endfacet
   facet normal 0.000000e+00 1.000000e+00 0.000000e+00
      outer loop
         vertex 8.000001e+00 1.900000e+01 1.815000e+02
         vertex 1.800000e+01 1.900000e+01 1.806500e+02
         vertex 1.727936e+01 1.900000e+01 1.805870e+02
      endloop
   endfacet
   facet normal -0.000000e+00 1.000000e+00 0.000000e+00
      outer loop
         vertex 9.000000e+01 1.900000e+01 1.806500e+02
         vertex 1.040000e+02 1.900000e+01 1.815000e+02
         vertex 9.072064e+01 1.900000e+01 1.805870e+02
      endloop
   endfacet
   facet normal 0.000000e+00 1.000000e+00 0.000000e+00
      outer loop
         vertex 8.000001e+00 1.900000e+01 1.815000e+02
         vertex 9.000000e+01 1.900000e+01 1.806500e+02
         vertex 1.800000e+01 1.900000e+01 1.806500e+02
      endloop
   endfacet
   facet normal -0.000000e+00 1.000000e+00 0.000000e+00
      outer loop
         vertex 8.000001e+00 1.900000e+01 1.815000e+02
         vertex 1.040000e+02 1.900000e+01 1.815000e+02
         vertex 9.000000e+01 1.900000e+01 1.806500e+02
      endloop
   endfacet
   facet normal -1.000000e+00 0.000000e+00 -0.000000e+00
      outer loop
         vertex 1.080000e+02 4.050000e+01 1.860000e+02
         vertex 1.080000e+02 4.050000e+01 0.000000e+00
         vertex 1.080000e+02 3.600000e+01 5.107142e+00
      endloop
   endfacet
   facet normal -1.000000e+00 0.000000e+00 0.000000e+00
      outer loop
         vertex 1.080000e+02 3.600000e+01 1.808929e+02
         vertex 1.080000e+02 4.050000e+01 1.860000e+02
         vertex 1.080000e+02 3.600000e+01 5.107142e+00
      endloop
   endfacet
   facet normal 0.000000e+00 1.000000e+00 0.000000e+00
      outer loop
         vertex 1.080000e+02 4.050000e+01 1.860000e+02
         vertex 1.110000e+02 4.050000e+01 0.000000e+00
         vertex 1.080000e+02 4.050000e+01 0.000000e+00
      endloop
   endfacet
   facet normal -0.000000e+00 1.000000e+00 0.000000e+00
      outer loop
         vertex 1.080000e+02 4.050000e+01 1.860000e+02
         vertex 1.110000e+02 4.050000e+01 1.860000e+02
         vertex 1.110000e+02 4.050000e+01 0.000000e+00
      endloop
   endfacet
endsolid